<svg width="28" height="28" viewBox="0 0 28 28" fill="none" xmlns="http://www.w3.org/2000/svg">
<path d="M10.5 12.8335C10.7308 12.8335 10.9564 12.7651 11.1482 12.6369C11.3401 12.5087 11.4896 12.3265 11.5779 12.1133C11.6662 11.9001 11.6893 11.6655 11.6443 11.4392C11.5993 11.2129 11.4882 11.005 11.325 10.8419C11.1618 10.6787 10.954 10.5676 10.7277 10.5226C10.5013 10.4776 10.2668 10.5007 10.0536 10.589C9.8404 10.6773 9.65819 10.8268 9.53 11.0187C9.4018 11.2105 9.33338 11.4361 9.33338 11.6668C9.33338 11.9762 9.4563 12.273 9.67509 12.4918C9.89388 12.7106 10.1906 12.8335 10.5 12.8335ZM14 2.3335C11.6926 2.3335 9.43697 3.01773 7.51839 4.29968C5.59982 5.58163 4.10447 7.40372 3.22145 9.53552C2.33843 11.6673 2.10739 14.0131 2.55755 16.2762C3.00771 18.5393 4.11885 20.6181 5.75047 22.2497C7.38208 23.8814 9.46088 24.9925 11.724 25.4427C13.9871 25.8928 16.3329 25.6618 18.4647 24.7788C20.5965 23.8957 22.4186 22.4004 23.7005 20.4818C24.9825 18.5632 25.6667 16.3076 25.6667 14.0002C25.6667 12.4681 25.3649 10.951 24.7786 9.53552C24.1923 8.12006 23.333 6.83393 22.2496 5.75058C21.1663 4.66723 19.8802 3.80787 18.4647 3.22157C17.0492 2.63526 15.5321 2.3335 14 2.3335ZM14 23.3335C12.1541 23.3335 10.3496 22.7861 8.81472 21.7605C7.27986 20.735 6.08359 19.2773 5.37717 17.5719C4.67075 15.8664 4.48592 13.9898 4.84605 12.1793C5.20618 10.3688 6.09509 8.70579 7.40038 7.4005C8.70567 6.09521 10.3687 5.2063 12.1792 4.84617C13.9897 4.48604 15.8663 4.67087 17.5718 5.37729C19.2772 6.08371 20.7349 7.27998 21.7604 8.81484C22.786 10.3497 23.3334 12.1542 23.3334 14.0002C23.3334 16.4755 22.35 18.8495 20.5997 20.5998C18.8494 22.3502 16.4754 23.3335 14 23.3335ZM17.5 15.1668H10.5C10.1906 15.1668 9.89388 15.2897 9.67509 15.5085C9.4563 15.7273 9.33338 16.0241 9.33338 16.3335C9.33338 17.5712 9.82504 18.7582 10.7002 19.6333C11.5754 20.5085 12.7624 21.0002 14 21.0002C15.2377 21.0002 16.4247 20.5085 17.2999 19.6333C18.175 18.7582 18.6667 17.5712 18.6667 16.3335C18.6667 16.0241 18.5438 15.7273 18.325 15.5085C18.1062 15.2897 17.8095 15.1668 17.5 15.1668ZM14 18.6668C13.5909 18.6664 13.189 18.5584 12.8347 18.3536C12.4805 18.1489 12.1863 17.8545 11.9817 17.5002H16.0184C15.8138 17.8545 15.5196 18.1489 15.1654 18.3536C14.8111 18.5584 14.4092 18.6664 14 18.6668ZM17.5 10.5002C17.2693 10.5002 17.0437 10.5686 16.8519 10.6968C16.66 10.825 16.5105 11.0072 16.4222 11.2204C16.3339 11.4335 16.3108 11.6681 16.3558 11.8944C16.4008 12.1207 16.5119 12.3286 16.6751 12.4918C16.8382 12.6549 17.0461 12.7661 17.2724 12.8111C17.4988 12.8561 17.7333 12.833 17.9465 12.7447C18.1597 12.6564 18.3419 12.5069 18.4701 12.315C18.5983 12.1231 18.6667 11.8976 18.6667 11.6668C18.6667 11.3574 18.5438 11.0607 18.325 10.8419C18.1062 10.6231 17.8095 10.5002 17.5 10.5002Z" fill="#1B1B1B"/>
</svg>
