<svg width="20" height="20" viewBox="0 0 20 20" fill="none" xmlns="http://www.w3.org/2000/svg">
<path d="M11.25 12.5002H9.35836L10.5667 10.4169C10.6214 10.3217 10.6568 10.2166 10.671 10.1077C10.6851 9.99883 10.6776 9.88822 10.649 9.78221C10.6203 9.67619 10.5711 9.57686 10.5041 9.48987C10.4371 9.40288 10.3536 9.32995 10.2584 9.27523C10.1632 9.22051 10.0581 9.18508 9.9492 9.17097C9.8403 9.15685 9.72969 9.16432 9.62367 9.19295C9.51766 9.22158 9.41832 9.27081 9.33134 9.33784C9.24435 9.40486 9.17141 9.48836 9.1167 9.58356L7.1917 12.9169C7.11856 13.0436 7.08005 13.1873 7.08005 13.3336C7.08005 13.4798 7.11856 13.6235 7.1917 13.7502C7.26512 13.8774 7.37084 13.9829 7.49815 14.0561C7.62547 14.1293 7.76986 14.1675 7.9167 14.1669H9.80836L8.60003 16.2502C8.48952 16.4425 8.45993 16.6708 8.51775 16.8849C8.57557 17.099 8.71608 17.2814 8.90836 17.3919C9.10065 17.5024 9.32895 17.532 9.54306 17.4742C9.75716 17.4164 9.93952 17.2758 10.05 17.0836L11.975 13.7502C12.0482 13.6235 12.0867 13.4798 12.0867 13.3336C12.0867 13.1873 12.0482 13.0436 11.975 12.9169C11.9016 12.7897 11.7959 12.6842 11.6686 12.611C11.5413 12.5379 11.3969 12.4996 11.25 12.5002ZM15.35 6.00856C14.8403 4.83841 13.9608 3.86773 12.8465 3.24536C11.7321 2.62299 10.4444 2.38329 9.18076 2.563C7.91711 2.74271 6.74728 3.33192 5.85063 4.24028C4.95398 5.14864 4.38 6.32602 4.2167 7.5919C3.42219 7.78217 2.72522 8.25759 2.25815 8.92789C1.79108 9.59818 1.58643 10.4167 1.68308 11.2279C1.77973 12.0391 2.17094 12.7866 2.78242 13.3284C3.3939 13.8702 4.18306 14.1686 5.00003 14.1669C5.22104 14.1669 5.43301 14.0791 5.58929 13.9228C5.74557 13.7665 5.83336 13.5546 5.83336 13.3336C5.83336 13.1125 5.74557 12.9006 5.58929 12.7443C5.43301 12.588 5.22104 12.5002 5.00003 12.5002C4.558 12.5002 4.13408 12.3246 3.82152 12.0121C3.50896 11.6995 3.33336 11.2756 3.33336 10.8336C3.33336 10.3915 3.50896 9.96761 3.82152 9.65505C4.13408 9.34249 4.558 9.1669 5.00003 9.1669C5.22104 9.1669 5.43301 9.0791 5.58929 8.92282C5.74557 8.76654 5.83336 8.55458 5.83336 8.33356C5.83549 7.34796 6.18694 6.39503 6.82526 5.64405C7.46357 4.89308 8.34744 4.39269 9.31982 4.23179C10.2922 4.07089 11.2901 4.2599 12.1363 4.76524C12.9825 5.27057 13.6222 6.05951 13.9417 6.9919C13.9906 7.13354 14.0768 7.25939 14.1911 7.35618C14.3055 7.45297 14.4439 7.51713 14.5917 7.5419C15.2025 7.65461 15.7495 7.99067 16.1261 8.48462C16.5027 8.97857 16.682 9.59503 16.6289 10.2139C16.5759 10.8328 16.2943 11.4097 15.8392 11.8324C15.384 12.255 14.7878 12.4931 14.1667 12.5002C13.9457 12.5002 13.7337 12.588 13.5774 12.7443C13.4212 12.9006 13.3334 13.1125 13.3334 13.3336C13.3334 13.5546 13.4212 13.7665 13.5774 13.9228C13.7337 14.0791 13.9457 14.1669 14.1667 14.1669C15.1662 14.1641 16.1313 13.8022 16.8862 13.1471C17.641 12.4921 18.1353 11.5875 18.2787 10.5983C18.4222 9.60923 18.2053 8.6015 17.6677 7.75895C17.1301 6.9164 16.3075 6.29517 15.35 6.00856Z" fill="white"/>
</svg>
