<svg width="40" height="40" viewBox="0 0 40 40" fill="none" xmlns="http://www.w3.org/2000/svg">
<path d="M30 7.46684C27.3479 4.81468 23.7508 3.32471 20 3.32471C16.2493 3.32471 12.6522 4.81468 10 7.46684C7.34788 10.119 5.85791 13.7161 5.85791 17.4668C5.85791 21.2176 7.34788 24.8147 10 27.4668L18.7834 36.2668C18.9383 36.4231 19.1227 36.547 19.3258 36.6317C19.5288 36.7163 19.7467 36.7598 19.9667 36.7598C20.1867 36.7598 20.4046 36.7163 20.6077 36.6317C20.8108 36.547 20.9951 36.4231 21.15 36.2668L30 27.3835C32.6411 24.7424 34.1249 21.1603 34.1249 17.4252C34.1249 13.6901 32.6411 10.108 30 7.46684V7.46684ZM27.6167 25.0002L20 32.6502L12.3834 25.0002C10.8786 23.494 9.85417 21.5756 9.43954 19.4873C9.0249 17.3991 9.23869 15.2348 10.0539 13.268C10.8691 11.3012 12.2491 9.62026 14.0194 8.43764C15.7898 7.25502 17.871 6.62381 20 6.62381C22.1291 6.62381 24.2103 7.25502 25.9807 8.43764C27.751 9.62026 29.131 11.3012 29.9462 13.268C30.7614 15.2348 30.9752 17.3991 30.5606 19.4873C30.1459 21.5756 29.1215 23.494 27.6167 25.0002V25.0002ZM15 12.3502C13.6546 13.6998 12.899 15.5278 12.899 17.4335C12.899 19.3392 13.6546 21.1672 15 22.5168C15.9996 23.5182 17.2727 24.202 18.6595 24.4825C20.0462 24.7631 21.485 24.6278 22.7952 24.0938C24.1054 23.5597 25.2287 22.6506 26.0242 21.4806C26.8197 20.3105 27.2519 18.9316 27.2667 17.5168C27.2742 16.5722 27.0922 15.6356 26.7316 14.7625C26.3709 13.8894 25.8388 13.0974 25.1667 12.4335C24.5062 11.7578 23.7185 11.2194 22.8491 10.8493C21.9797 10.4792 21.0456 10.2846 20.1007 10.2769C19.1558 10.2691 18.2187 10.4483 17.3433 10.8042C16.468 11.16 15.6716 11.6854 15 12.3502V12.3502ZM22.8167 20.1502C22.1851 20.7914 21.3504 21.1933 20.4553 21.2873C19.5601 21.3812 18.6602 21.1612 17.9092 20.6651C17.1583 20.1689 16.603 19.4272 16.3384 18.567C16.0737 17.7067 16.1161 16.7812 16.4583 15.9488C16.8005 15.1163 17.4212 14.4285 18.2144 14.0031C19.0075 13.5776 19.9238 13.4409 20.8066 13.6162C21.6894 13.7916 22.4839 14.2681 23.0542 14.9644C23.6246 15.6607 23.9353 16.5335 23.9334 17.4335C23.9091 18.4623 23.4775 19.4394 22.7334 20.1502H22.8167Z" fill="#1B1B1B"/>
</svg>
