<svg width="28" height="28" viewBox="0 0 28 28" fill="none" xmlns="http://www.w3.org/2000/svg">
<path d="M14 17.4998C15.2376 17.4998 16.4246 17.0082 17.2998 16.133C18.175 15.2578 18.6666 14.0708 18.6666 12.8332V5.83317C18.6666 4.59549 18.175 3.40851 17.2998 2.53334C16.4246 1.65817 15.2376 1.1665 14 1.1665C12.7623 1.1665 11.5753 1.65817 10.7001 2.53334C9.82496 3.40851 9.33329 4.59549 9.33329 5.83317V12.8332C9.33329 14.0708 9.82496 15.2578 10.7001 16.133C11.5753 17.0082 12.7623 17.4998 14 17.4998ZM11.6666 5.83317C11.6666 5.21433 11.9125 4.62084 12.35 4.18325C12.7876 3.74567 13.3811 3.49984 14 3.49984C14.6188 3.49984 15.2123 3.74567 15.6499 4.18325C16.0875 4.62084 16.3333 5.21433 16.3333 5.83317V12.8332C16.3333 13.452 16.0875 14.0455 15.6499 14.4831C15.2123 14.9207 14.6188 15.1665 14 15.1665C13.3811 15.1665 12.7876 14.9207 12.35 14.4831C11.9125 14.0455 11.6666 13.452 11.6666 12.8332V5.83317ZM23.3333 12.8332C23.3333 12.5238 23.2104 12.227 22.9916 12.0082C22.7728 11.7894 22.476 11.6665 22.1666 11.6665C21.8572 11.6665 21.5605 11.7894 21.3417 12.0082C21.1229 12.227 21 12.5238 21 12.8332C21 14.6897 20.2625 16.4702 18.9497 17.7829C17.637 19.0957 15.8565 19.8332 14 19.8332C12.1434 19.8332 10.363 19.0957 9.05021 17.7829C7.73746 16.4702 6.99996 14.6897 6.99996 12.8332C6.99996 12.5238 6.87704 12.227 6.65825 12.0082C6.43946 11.7894 6.14271 11.6665 5.83329 11.6665C5.52387 11.6665 5.22713 11.7894 5.00833 12.0082C4.78954 12.227 4.66663 12.5238 4.66663 12.8332C4.66869 15.105 5.4993 17.2981 7.00276 19.0013C8.50621 20.7045 10.5793 21.8009 12.8333 22.0848V24.4998H10.5C10.1905 24.4998 9.89379 24.6228 9.675 24.8415C9.45621 25.0603 9.33329 25.3571 9.33329 25.6665C9.33329 25.9759 9.45621 26.2727 9.675 26.4915C9.89379 26.7103 10.1905 26.8332 10.5 26.8332H17.5C17.8094 26.8332 18.1061 26.7103 18.3249 26.4915C18.5437 26.2727 18.6666 25.9759 18.6666 25.6665C18.6666 25.3571 18.5437 25.0603 18.3249 24.8415C18.1061 24.6228 17.8094 24.4998 17.5 24.4998H15.1666V22.0848C17.4207 21.8009 19.4937 20.7045 20.9972 19.0013C22.5006 17.2981 23.3312 15.105 23.3333 12.8332Z" fill="#1B1B1B"/>
</svg>
