<svg width="12" height="8" viewBox="0 0 12 8" fill="none" xmlns="http://www.w3.org/2000/svg">
<path d="M11.0002 1.16726C10.8128 0.981006 10.5594 0.876465 10.2952 0.876465C10.031 0.876465 9.77756 0.981006 9.59019 1.16726L6.00019 4.70726L2.46019 1.16726C2.27283 0.981006 2.01938 0.876465 1.75519 0.876465C1.49101 0.876465 1.23756 0.981006 1.05019 1.16726C0.956464 1.26022 0.88207 1.37082 0.831301 1.49268C0.780533 1.61454 0.754395 1.74525 0.754395 1.87726C0.754395 2.00927 0.780533 2.13997 0.831301 2.26183C0.88207 2.38369 0.956464 2.49429 1.05019 2.58726L5.29019 6.82726C5.38316 6.92099 5.49376 6.99538 5.61562 7.04615C5.73747 7.09692 5.86818 7.12306 6.00019 7.12306C6.1322 7.12306 6.26291 7.09692 6.38477 7.04615C6.50663 6.99538 6.61723 6.92099 6.71019 6.82726L11.0002 2.58726C11.0939 2.49429 11.1683 2.38369 11.2191 2.26183C11.2699 2.13997 11.296 2.00927 11.296 1.87726C11.296 1.74525 11.2699 1.61454 11.2191 1.49268C11.1683 1.37082 11.0939 1.26022 11.0002 1.16726Z" fill="#1B1B1B"/>
</svg>
