<svg width="197" height="474" viewBox="0 0 197 474" fill="none" xmlns="http://www.w3.org/2000/svg">
<path d="M181 2C183.869 8.64313 191.067 14.2276 192.944 21.1111C196.133 32.8029 194.463 44.9754 191.5 56.5C188.875 66.7093 183.932 75.6923 179.222 85.1111C173.71 96.1347 170.228 108.593 170 121C169.558 145.077 172.472 169.436 164 192.5C157.296 210.749 142.98 226.011 130.944 241.056C119.627 255.202 115.641 271.348 109.778 288C105.514 300.109 102.942 312.439 94.4444 322.556C83.1631 335.986 75.3698 351.945 66 366L2 472" stroke="#B4B4B4" stroke-width="3" stroke-linecap="round"/>
</svg>
