<svg width="28" height="28" viewBox="0 0 28 28" fill="none" xmlns="http://www.w3.org/2000/svg">
<path d="M10.4999 12.8335C10.7307 12.8335 10.9562 12.7651 11.1481 12.6369C11.3399 12.5087 11.4895 12.3265 11.5778 12.1133C11.6661 11.9001 11.6892 11.6655 11.6442 11.4392C11.5992 11.2129 11.488 11.005 11.3249 10.8419C11.1617 10.6787 10.9538 10.5676 10.7275 10.5226C10.5012 10.4776 10.2666 10.5007 10.0535 10.589C9.84028 10.6773 9.65807 10.8268 9.52988 11.0187C9.40168 11.2105 9.33326 11.4361 9.33326 11.6668C9.33326 11.9762 9.45617 12.273 9.67497 12.4918C9.89376 12.7106 10.1905 12.8335 10.4999 12.8335ZM13.9999 2.3335C11.6925 2.3335 9.43684 3.01773 7.51827 4.29968C5.5997 5.58163 4.10435 7.40372 3.22133 9.53552C2.33831 11.6673 2.10727 14.0131 2.55743 16.2762C3.00759 18.5393 4.11873 20.6181 5.75034 22.2497C7.38196 23.8814 9.46076 24.9925 11.7239 25.4427C13.987 25.8928 16.3328 25.6618 18.4646 24.7788C20.5964 23.8957 22.4185 22.4004 23.7004 20.4818C24.9823 18.5632 25.6666 16.3076 25.6666 14.0002C25.6666 12.4681 25.3648 10.951 24.7785 9.53552C24.1922 8.12006 23.3329 6.83393 22.2495 5.75058C21.1662 4.66723 19.88 3.80787 18.4646 3.22157C17.0491 2.63526 15.532 2.3335 13.9999 2.3335ZM13.9999 23.3335C12.154 23.3335 10.3495 22.7861 8.8146 21.7605C7.27974 20.735 6.08347 19.2773 5.37705 17.5719C4.67063 15.8664 4.4858 13.9898 4.84593 12.1793C5.20606 10.3688 6.09497 8.70579 7.40026 7.4005C8.70555 6.09521 10.3686 5.2063 12.1791 4.84617C13.9896 4.48604 15.8662 4.67087 17.5716 5.37729C19.2771 6.08371 20.7347 7.27998 21.7603 8.81484C22.7859 10.3497 23.3333 12.1542 23.3333 14.0002C23.3333 16.4755 22.3499 18.8495 20.5996 20.5998C18.8492 22.3502 16.4753 23.3335 13.9999 23.3335ZM17.4999 15.1668H10.4999C10.1905 15.1668 9.89376 15.2897 9.67497 15.5085C9.45617 15.7273 9.33326 16.0241 9.33326 16.3335C9.33326 17.5712 9.82492 18.7582 10.7001 19.6333C11.5753 20.5085 12.7622 21.0002 13.9999 21.0002C15.2376 21.0002 16.4246 20.5085 17.2998 19.6333C18.1749 18.7582 18.6666 17.5712 18.6666 16.3335C18.6666 16.0241 18.5437 15.7273 18.3249 15.5085C18.1061 15.2897 17.8093 15.1668 17.4999 15.1668ZM13.9999 18.6668C13.5907 18.6664 13.1889 18.5584 12.8346 18.3536C12.4804 18.1489 12.1862 17.8545 11.9816 17.5002H16.0183C15.8137 17.8545 15.5195 18.1489 15.1652 18.3536C14.811 18.5584 14.4091 18.6664 13.9999 18.6668ZM17.4999 10.5002C17.2692 10.5002 17.0436 10.5686 16.8518 10.6968C16.6599 10.825 16.5104 11.0072 16.4221 11.2204C16.3338 11.4335 16.3107 11.6681 16.3557 11.8944C16.4007 12.1207 16.5118 12.3286 16.675 12.4918C16.8381 12.6549 17.046 12.7661 17.2723 12.8111C17.4986 12.8561 17.7332 12.833 17.9464 12.7447C18.1596 12.6564 18.3418 12.5069 18.47 12.315C18.5982 12.1231 18.6666 11.8976 18.6666 11.6668C18.6666 11.3574 18.5437 11.0607 18.3249 10.8419C18.1061 10.6231 17.8093 10.5002 17.4999 10.5002Z" fill="#1B1B1B"/>
</svg>
