<svg width="335" height="231" viewBox="0 0 335 231" fill="none" xmlns="http://www.w3.org/2000/svg">
<rect width="335" height="231" rx="2" fill="#EEEEEE"/>
<path d="M175 106H161C160.204 106 159.441 106.316 158.879 106.879C158.316 107.441 158 108.204 158 109V123C158 123.796 158.316 124.559 158.879 125.121C159.441 125.684 160.204 126 161 126H175C175.164 125.998 175.328 125.981 175.49 125.95L175.79 125.88H175.86H175.91L176.28 125.74L176.41 125.67C176.51 125.61 176.62 125.56 176.72 125.49C176.854 125.392 176.98 125.285 177.1 125.17L177.17 125.08C177.268 124.981 177.358 124.874 177.44 124.76L177.53 124.63C177.6 124.519 177.66 124.402 177.71 124.28C177.737 124.232 177.761 124.182 177.78 124.13C177.83 124.01 177.86 123.88 177.9 123.75V123.6C177.957 123.405 177.99 123.203 178 123V109C178 108.204 177.684 107.441 177.121 106.879C176.559 106.316 175.796 106 175 106ZM161 124C160.735 124 160.48 123.895 160.293 123.707C160.105 123.52 160 123.265 160 123V118.69L163.29 115.39C163.383 115.296 163.494 115.222 163.615 115.171C163.737 115.12 163.868 115.094 164 115.094C164.132 115.094 164.263 115.12 164.385 115.171C164.506 115.222 164.617 115.296 164.71 115.39L173.31 124H161ZM176 123C175.999 123.123 175.975 123.245 175.93 123.36C175.907 123.409 175.88 123.456 175.85 123.5C175.823 123.542 175.793 123.582 175.76 123.62L170.41 118.27L171.29 117.39C171.383 117.296 171.494 117.222 171.615 117.171C171.737 117.12 171.868 117.094 172 117.094C172.132 117.094 172.263 117.12 172.385 117.171C172.506 117.222 172.617 117.296 172.71 117.39L176 120.69V123ZM176 117.86L174.12 116C173.548 115.457 172.789 115.154 172 115.154C171.211 115.154 170.452 115.457 169.88 116L169 116.88L166.12 114C165.548 113.457 164.789 113.154 164 113.154C163.211 113.154 162.452 113.457 161.88 114L160 115.86V109C160 108.735 160.105 108.48 160.293 108.293C160.48 108.105 160.735 108 161 108H175C175.265 108 175.52 108.105 175.707 108.293C175.895 108.48 176 108.735 176 109V117.86ZM169.5 110C169.203 110 168.913 110.088 168.667 110.253C168.42 110.418 168.228 110.652 168.114 110.926C168.001 111.2 167.971 111.502 168.029 111.793C168.087 112.084 168.23 112.351 168.439 112.561C168.649 112.77 168.916 112.913 169.207 112.971C169.498 113.029 169.8 112.999 170.074 112.886C170.348 112.772 170.582 112.58 170.747 112.333C170.912 112.087 171 111.797 171 111.5C171 111.102 170.842 110.721 170.561 110.439C170.279 110.158 169.898 110 169.5 110Z" fill="#1B1B1B"/>
<circle cx="121" cy="207" r="4" fill="#1B1B1B"/>
<circle cx="137" cy="207" r="4" fill="#B4B4B4"/>
<circle cx="153" cy="207" r="4" fill="#B4B4B4"/>
<circle cx="169" cy="207" r="4" fill="#B4B4B4"/>
<circle cx="185" cy="207" r="4" fill="#B4B4B4"/>
<circle cx="201" cy="207" r="4" fill="#B4B4B4"/>
<circle cx="217" cy="207" r="4" fill="#B4B4B4"/>
</svg>
