<svg width="359" height="722" viewBox="0 0 359 722" fill="none" xmlns="http://www.w3.org/2000/svg">
<rect width="117" height="117" rx="2" fill="#EEEEEE"/>
<path d="M66 53.5H64.72L64.4 52.5C64.1926 51.9133 63.8077 51.4055 63.2989 51.0472C62.7901 50.6888 62.1824 50.4976 61.56 50.5H56.44C55.8115 50.5012 55.1993 50.6997 54.6898 51.0675C54.1802 51.4353 53.799 51.9539 53.6 52.55L53.28 53.55H52C51.2044 53.55 50.4413 53.8661 49.8787 54.4287C49.3161 54.9913 49 55.7544 49 56.55V64.55C49 65.3457 49.3161 66.1087 49.8787 66.6713C50.4413 67.234 51.2044 67.55 52 67.55H66C66.7956 67.55 67.5587 67.234 68.1213 66.6713C68.6839 66.1087 69 65.3457 69 64.55V56.55C69.0066 56.1519 68.9339 55.7564 68.7862 55.3866C68.6384 55.0168 68.4184 54.6802 68.1392 54.3963C67.86 54.1124 67.527 53.887 67.1597 53.7331C66.7924 53.5792 66.3982 53.5 66 53.5ZM67 64.5C67 64.7652 66.8946 65.0196 66.7071 65.2071C66.5196 65.3947 66.2652 65.5 66 65.5H52C51.7348 65.5 51.4804 65.3947 51.2929 65.2071C51.1054 65.0196 51 64.7652 51 64.5V56.5C51 56.2348 51.1054 55.9805 51.2929 55.7929C51.4804 55.6054 51.7348 55.5 52 55.5H54C54.2181 55.5114 54.4339 55.4511 54.6144 55.3283C54.795 55.2055 54.9304 55.027 55 54.82L55.54 53.18C55.6071 52.9814 55.7349 52.8089 55.9054 52.6869C56.0758 52.5648 56.2804 52.4995 56.49 52.5H61.61C61.8196 52.4995 62.0242 52.5648 62.1946 52.6869C62.3651 52.8089 62.4929 52.9814 62.56 53.18L63.1 54.82C63.1642 55.0108 63.2844 55.1777 63.445 55.299C63.6055 55.4204 63.799 55.4904 64 55.5H66C66.2652 55.5 66.5196 55.6054 66.7071 55.7929C66.8946 55.9805 67 56.2348 67 56.5V64.5ZM59 55.5C58.2089 55.5 57.4355 55.7346 56.7777 56.1741C56.1199 56.6137 55.6072 57.2384 55.3045 57.9693C55.0017 58.7002 54.9225 59.5045 55.0769 60.2804C55.2312 61.0563 55.6122 61.769 56.1716 62.3284C56.731 62.8879 57.4437 63.2688 58.2196 63.4232C58.9956 63.5775 59.7998 63.4983 60.5307 63.1955C61.2616 62.8928 61.8864 62.3801 62.3259 61.7223C62.7654 61.0645 63 60.2911 63 59.5C63 58.4392 62.5786 57.4217 61.8284 56.6716C61.0783 55.9214 60.0609 55.5 59 55.5ZM59 61.5C58.6044 61.5 58.2178 61.3827 57.8889 61.163C57.56 60.9432 57.3036 60.6308 57.1522 60.2654C57.0009 59.8999 56.9613 59.4978 57.0384 59.1098C57.1156 58.7219 57.3061 58.3655 57.5858 58.0858C57.8655 57.8061 58.2219 57.6156 58.6098 57.5385C58.9978 57.4613 59.3999 57.5009 59.7654 57.6523C60.1308 57.8036 60.4432 58.06 60.6629 58.3889C60.8827 58.7178 61 59.1045 61 59.5C61 60.0305 60.7893 60.5392 60.4142 60.9142C60.0391 61.2893 59.5304 61.5 59 61.5Z" fill="#1B1B1B"/>
<mask id="path-3-inside-1_5890_4007" fill="white">
<rect x="121" width="117" height="117" rx="2"/>
</mask>
<rect x="121" width="117" height="117" rx="2" fill="white"/>
<path d="M187 49H173C172.204 49 171.441 49.3161 170.879 49.8787C170.316 50.4413 170 51.2044 170 52V66C170 66.7956 170.316 67.5587 170.879 68.1213C171.441 68.6839 172.204 69 173 69H187C187.164 68.9977 187.328 68.981 187.49 68.95L187.79 68.88H187.86H187.91L188.28 68.74L188.41 68.67C188.51 68.61 188.62 68.56 188.72 68.49C188.854 68.3918 188.98 68.2849 189.1 68.17L189.17 68.08C189.268 67.9805 189.358 67.8735 189.44 67.76L189.53 67.63C189.6 67.5187 189.66 67.4016 189.71 67.28C189.737 67.232 189.761 67.1818 189.78 67.13C189.83 67.01 189.86 66.88 189.9 66.75V66.6C189.957 66.4046 189.99 66.2032 190 66V52C190 51.2044 189.684 50.4413 189.121 49.8787C188.559 49.3161 187.796 49 187 49ZM173 67C172.735 67 172.48 66.8946 172.293 66.7071C172.105 66.5196 172 66.2652 172 66V61.69L175.29 58.39C175.383 58.2963 175.494 58.2219 175.615 58.1711C175.737 58.1203 175.868 58.0942 176 58.0942C176.132 58.0942 176.263 58.1203 176.385 58.1711C176.506 58.2219 176.617 58.2963 176.71 58.39L185.31 67H173ZM188 66C187.999 66.1233 187.975 66.2453 187.93 66.36C187.907 66.4087 187.88 66.4556 187.85 66.5C187.823 66.5423 187.793 66.5825 187.76 66.62L182.41 61.27L183.29 60.39C183.383 60.2963 183.494 60.2219 183.615 60.1711C183.737 60.1203 183.868 60.0942 184 60.0942C184.132 60.0942 184.263 60.1203 184.385 60.1711C184.506 60.2219 184.617 60.2963 184.71 60.39L188 63.69V66ZM188 60.86L186.12 59C185.548 58.457 184.789 58.1543 184 58.1543C183.211 58.1543 182.452 58.457 181.88 59L181 59.88L178.12 57C177.548 56.457 176.789 56.1543 176 56.1543C175.211 56.1543 174.452 56.457 173.88 57L172 58.86V52C172 51.7348 172.105 51.4804 172.293 51.2929C172.48 51.1054 172.735 51 173 51H187C187.265 51 187.52 51.1054 187.707 51.2929C187.895 51.4804 188 51.7348 188 52V60.86ZM181.5 53C181.203 53 180.913 53.088 180.667 53.2528C180.42 53.4176 180.228 53.6519 180.114 53.926C180.001 54.2001 179.971 54.5017 180.029 54.7926C180.087 55.0836 180.23 55.3509 180.439 55.5607C180.649 55.7704 180.916 55.9133 181.207 55.9712C181.498 56.0291 181.8 55.9994 182.074 55.8858C182.348 55.7723 182.582 55.58 182.747 55.3334C182.912 55.0867 183 54.7967 183 54.5C183 54.1022 182.842 53.7206 182.561 53.4393C182.279 53.158 181.898 53 181.5 53Z" fill="#1B1B1B"/>
<rect x="121" width="117" height="117" rx="2" stroke="#1B1B1B" stroke-width="6" mask="url(#path-3-inside-1_5890_4007)"/>
<rect x="242" width="117" height="117" rx="2" fill="#EEEEEE"/>
<path d="M308 49H294C293.204 49 292.441 49.3161 291.879 49.8787C291.316 50.4413 291 51.2044 291 52V66C291 66.7956 291.316 67.5587 291.879 68.1213C292.441 68.6839 293.204 69 294 69H308C308.164 68.9977 308.328 68.981 308.49 68.95L308.79 68.88H308.86H308.91L309.28 68.74L309.41 68.67C309.51 68.61 309.62 68.56 309.72 68.49C309.854 68.3918 309.98 68.2849 310.1 68.17L310.17 68.08C310.268 67.9805 310.358 67.8735 310.44 67.76L310.53 67.63C310.6 67.5187 310.66 67.4016 310.71 67.28C310.737 67.232 310.761 67.1818 310.78 67.13C310.83 67.01 310.86 66.88 310.9 66.75V66.6C310.957 66.4046 310.99 66.2032 311 66V52C311 51.2044 310.684 50.4413 310.121 49.8787C309.559 49.3161 308.796 49 308 49ZM294 67C293.735 67 293.48 66.8946 293.293 66.7071C293.105 66.5196 293 66.2652 293 66V61.69L296.29 58.39C296.383 58.2963 296.494 58.2219 296.615 58.1711C296.737 58.1203 296.868 58.0942 297 58.0942C297.132 58.0942 297.263 58.1203 297.385 58.1711C297.506 58.2219 297.617 58.2963 297.71 58.39L306.31 67H294ZM309 66C308.999 66.1233 308.975 66.2453 308.93 66.36C308.907 66.4087 308.88 66.4556 308.85 66.5C308.823 66.5423 308.793 66.5825 308.76 66.62L303.41 61.27L304.29 60.39C304.383 60.2963 304.494 60.2219 304.615 60.1711C304.737 60.1203 304.868 60.0942 305 60.0942C305.132 60.0942 305.263 60.1203 305.385 60.1711C305.506 60.2219 305.617 60.2963 305.71 60.39L309 63.69V66ZM309 60.86L307.12 59C306.548 58.457 305.789 58.1543 305 58.1543C304.211 58.1543 303.452 58.457 302.88 59L302 59.88L299.12 57C298.548 56.457 297.789 56.1543 297 56.1543C296.211 56.1543 295.452 56.457 294.88 57L293 58.86V52C293 51.7348 293.105 51.4804 293.293 51.2929C293.48 51.1054 293.735 51 294 51H308C308.265 51 308.52 51.1054 308.707 51.2929C308.895 51.4804 309 51.7348 309 52V60.86ZM302.5 53C302.203 53 301.913 53.088 301.667 53.2528C301.42 53.4176 301.228 53.6519 301.114 53.926C301.001 54.2001 300.971 54.5017 301.029 54.7926C301.087 55.0836 301.23 55.3509 301.439 55.5607C301.649 55.7704 301.916 55.9133 302.207 55.9712C302.498 56.0291 302.8 55.9994 303.074 55.8858C303.348 55.7723 303.582 55.58 303.747 55.3334C303.912 55.0867 304 54.7967 304 54.5C304 54.1022 303.842 53.7206 303.561 53.4393C303.279 53.158 302.898 53 302.5 53Z" fill="#1B1B1B"/>
<rect y="121" width="117" height="117" rx="2" fill="#EEEEEE"/>
<path d="M66 170H52C51.2044 170 50.4413 170.316 49.8787 170.879C49.3161 171.441 49 172.204 49 173V187C49 187.796 49.3161 188.559 49.8787 189.121C50.4413 189.684 51.2044 190 52 190H66C66.1645 189.998 66.3284 189.981 66.49 189.95L66.79 189.88H66.86H66.91L67.28 189.74L67.41 189.67C67.51 189.61 67.62 189.56 67.72 189.49C67.8535 189.392 67.9805 189.285 68.1 189.17L68.17 189.08C68.2682 188.981 68.3585 188.874 68.44 188.76L68.53 188.63C68.5998 188.519 68.6601 188.402 68.71 188.28C68.7374 188.232 68.7609 188.182 68.78 188.13C68.83 188.01 68.86 187.88 68.9 187.75V187.6C68.9567 187.405 68.9903 187.203 69 187V173C69 172.204 68.6839 171.441 68.1213 170.879C67.5587 170.316 66.7956 170 66 170ZM52 188C51.7348 188 51.4804 187.895 51.2929 187.707C51.1054 187.52 51 187.265 51 187V182.69L54.29 179.39C54.383 179.296 54.4936 179.222 54.6154 179.171C54.7373 179.12 54.868 179.094 55 179.094C55.132 179.094 55.2627 179.12 55.3846 179.171C55.5064 179.222 55.617 179.296 55.71 179.39L64.31 188H52ZM67 187C66.9991 187.123 66.9753 187.245 66.93 187.36C66.9071 187.409 66.8804 187.456 66.85 187.5C66.8232 187.542 66.7931 187.582 66.76 187.62L61.41 182.27L62.29 181.39C62.383 181.296 62.4936 181.222 62.6154 181.171C62.7373 181.12 62.868 181.094 63 181.094C63.132 181.094 63.2627 181.12 63.3846 181.171C63.5064 181.222 63.617 181.296 63.71 181.39L67 184.69V187ZM67 181.86L65.12 180C64.5477 179.457 63.7889 179.154 63 179.154C62.2111 179.154 61.4523 179.457 60.88 180L60 180.88L57.12 178C56.5477 177.457 55.7889 177.154 55 177.154C54.2111 177.154 53.4523 177.457 52.88 178L51 179.86V173C51 172.735 51.1054 172.48 51.2929 172.293C51.4804 172.105 51.7348 172 52 172H66C66.2652 172 66.5196 172.105 66.7071 172.293C66.8946 172.48 67 172.735 67 173V181.86ZM60.5 174C60.2033 174 59.9133 174.088 59.6666 174.253C59.42 174.418 59.2277 174.652 59.1142 174.926C59.0006 175.2 58.9709 175.502 59.0288 175.793C59.0867 176.084 59.2296 176.351 59.4393 176.561C59.6491 176.77 59.9164 176.913 60.2074 176.971C60.4983 177.029 60.7999 176.999 61.074 176.886C61.3481 176.772 61.5824 176.58 61.7472 176.333C61.912 176.087 62 175.797 62 175.5C62 175.102 61.842 174.721 61.5607 174.439C61.2794 174.158 60.8978 174 60.5 174Z" fill="#1B1B1B"/>
<rect x="121" y="121" width="117" height="117" rx="2" fill="#EEEEEE"/>
<path d="M187 170H173C172.204 170 171.441 170.316 170.879 170.879C170.316 171.441 170 172.204 170 173V187C170 187.796 170.316 188.559 170.879 189.121C171.441 189.684 172.204 190 173 190H187C187.164 189.998 187.328 189.981 187.49 189.95L187.79 189.88H187.86H187.91L188.28 189.74L188.41 189.67C188.51 189.61 188.62 189.56 188.72 189.49C188.854 189.392 188.98 189.285 189.1 189.17L189.17 189.08C189.268 188.981 189.358 188.874 189.44 188.76L189.53 188.63C189.6 188.519 189.66 188.402 189.71 188.28C189.737 188.232 189.761 188.182 189.78 188.13C189.83 188.01 189.86 187.88 189.9 187.75V187.6C189.957 187.405 189.99 187.203 190 187V173C190 172.204 189.684 171.441 189.121 170.879C188.559 170.316 187.796 170 187 170ZM173 188C172.735 188 172.48 187.895 172.293 187.707C172.105 187.52 172 187.265 172 187V182.69L175.29 179.39C175.383 179.296 175.494 179.222 175.615 179.171C175.737 179.12 175.868 179.094 176 179.094C176.132 179.094 176.263 179.12 176.385 179.171C176.506 179.222 176.617 179.296 176.71 179.39L185.31 188H173ZM188 187C187.999 187.123 187.975 187.245 187.93 187.36C187.907 187.409 187.88 187.456 187.85 187.5C187.823 187.542 187.793 187.582 187.76 187.62L182.41 182.27L183.29 181.39C183.383 181.296 183.494 181.222 183.615 181.171C183.737 181.12 183.868 181.094 184 181.094C184.132 181.094 184.263 181.12 184.385 181.171C184.506 181.222 184.617 181.296 184.71 181.39L188 184.69V187ZM188 181.86L186.12 180C185.548 179.457 184.789 179.154 184 179.154C183.211 179.154 182.452 179.457 181.88 180L181 180.88L178.12 178C177.548 177.457 176.789 177.154 176 177.154C175.211 177.154 174.452 177.457 173.88 178L172 179.86V173C172 172.735 172.105 172.48 172.293 172.293C172.48 172.105 172.735 172 173 172H187C187.265 172 187.52 172.105 187.707 172.293C187.895 172.48 188 172.735 188 173V181.86ZM181.5 174C181.203 174 180.913 174.088 180.667 174.253C180.42 174.418 180.228 174.652 180.114 174.926C180.001 175.2 179.971 175.502 180.029 175.793C180.087 176.084 180.23 176.351 180.439 176.561C180.649 176.77 180.916 176.913 181.207 176.971C181.498 177.029 181.8 176.999 182.074 176.886C182.348 176.772 182.582 176.58 182.747 176.333C182.912 176.087 183 175.797 183 175.5C183 175.102 182.842 174.721 182.561 174.439C182.279 174.158 181.898 174 181.5 174Z" fill="#1B1B1B"/>
<mask id="path-11-inside-2_5890_4007" fill="white">
<rect x="242" y="121" width="117" height="117" rx="2"/>
</mask>
<rect x="242" y="121" width="117" height="117" rx="2" fill="white"/>
<path d="M308 170H294C293.204 170 292.441 170.316 291.879 170.879C291.316 171.441 291 172.204 291 173V187C291 187.796 291.316 188.559 291.879 189.121C292.441 189.684 293.204 190 294 190H308C308.164 189.998 308.328 189.981 308.49 189.95L308.79 189.88H308.86H308.91L309.28 189.74L309.41 189.67C309.51 189.61 309.62 189.56 309.72 189.49C309.854 189.392 309.98 189.285 310.1 189.17L310.17 189.08C310.268 188.981 310.358 188.874 310.44 188.76L310.53 188.63C310.6 188.519 310.66 188.402 310.71 188.28C310.737 188.232 310.761 188.182 310.78 188.13C310.83 188.01 310.86 187.88 310.9 187.75V187.6C310.957 187.405 310.99 187.203 311 187V173C311 172.204 310.684 171.441 310.121 170.879C309.559 170.316 308.796 170 308 170ZM294 188C293.735 188 293.48 187.895 293.293 187.707C293.105 187.52 293 187.265 293 187V182.69L296.29 179.39C296.383 179.296 296.494 179.222 296.615 179.171C296.737 179.12 296.868 179.094 297 179.094C297.132 179.094 297.263 179.12 297.385 179.171C297.506 179.222 297.617 179.296 297.71 179.39L306.31 188H294ZM309 187C308.999 187.123 308.975 187.245 308.93 187.36C308.907 187.409 308.88 187.456 308.85 187.5C308.823 187.542 308.793 187.582 308.76 187.62L303.41 182.27L304.29 181.39C304.383 181.296 304.494 181.222 304.615 181.171C304.737 181.12 304.868 181.094 305 181.094C305.132 181.094 305.263 181.12 305.385 181.171C305.506 181.222 305.617 181.296 305.71 181.39L309 184.69V187ZM309 181.86L307.12 180C306.548 179.457 305.789 179.154 305 179.154C304.211 179.154 303.452 179.457 302.88 180L302 180.88L299.12 178C298.548 177.457 297.789 177.154 297 177.154C296.211 177.154 295.452 177.457 294.88 178L293 179.86V173C293 172.735 293.105 172.48 293.293 172.293C293.48 172.105 293.735 172 294 172H308C308.265 172 308.52 172.105 308.707 172.293C308.895 172.48 309 172.735 309 173V181.86ZM302.5 174C302.203 174 301.913 174.088 301.667 174.253C301.42 174.418 301.228 174.652 301.114 174.926C301.001 175.2 300.971 175.502 301.029 175.793C301.087 176.084 301.23 176.351 301.439 176.561C301.649 176.77 301.916 176.913 302.207 176.971C302.498 177.029 302.8 176.999 303.074 176.886C303.348 176.772 303.582 176.58 303.747 176.333C303.912 176.087 304 175.797 304 175.5C304 175.102 303.842 174.721 303.561 174.439C303.279 174.158 302.898 174 302.5 174Z" fill="#1B1B1B"/>
<rect x="242" y="121" width="117" height="117" rx="2" stroke="#1B1B1B" stroke-width="6" mask="url(#path-11-inside-2_5890_4007)"/>
<rect y="242" width="117" height="117" rx="2" fill="#EEEEEE"/>
<path d="M66 291H52C51.2044 291 50.4413 291.316 49.8787 291.879C49.3161 292.441 49 293.204 49 294V308C49 308.796 49.3161 309.559 49.8787 310.121C50.4413 310.684 51.2044 311 52 311H66C66.1645 310.998 66.3284 310.981 66.49 310.95L66.79 310.88H66.86H66.91L67.28 310.74L67.41 310.67C67.51 310.61 67.62 310.56 67.72 310.49C67.8535 310.392 67.9805 310.285 68.1 310.17L68.17 310.08C68.2682 309.981 68.3585 309.874 68.44 309.76L68.53 309.63C68.5998 309.519 68.6601 309.402 68.71 309.28C68.7374 309.232 68.7609 309.182 68.78 309.13C68.83 309.01 68.86 308.88 68.9 308.75V308.6C68.9567 308.405 68.9903 308.203 69 308V294C69 293.204 68.6839 292.441 68.1213 291.879C67.5587 291.316 66.7956 291 66 291ZM52 309C51.7348 309 51.4804 308.895 51.2929 308.707C51.1054 308.52 51 308.265 51 308V303.69L54.29 300.39C54.383 300.296 54.4936 300.222 54.6154 300.171C54.7373 300.12 54.868 300.094 55 300.094C55.132 300.094 55.2627 300.12 55.3846 300.171C55.5064 300.222 55.617 300.296 55.71 300.39L64.31 309H52ZM67 308C66.9991 308.123 66.9753 308.245 66.93 308.36C66.9071 308.409 66.8804 308.456 66.85 308.5C66.8232 308.542 66.7931 308.582 66.76 308.62L61.41 303.27L62.29 302.39C62.383 302.296 62.4936 302.222 62.6154 302.171C62.7373 302.12 62.868 302.094 63 302.094C63.132 302.094 63.2627 302.12 63.3846 302.171C63.5064 302.222 63.617 302.296 63.71 302.39L67 305.69V308ZM67 302.86L65.12 301C64.5477 300.457 63.7889 300.154 63 300.154C62.2111 300.154 61.4523 300.457 60.88 301L60 301.88L57.12 299C56.5477 298.457 55.7889 298.154 55 298.154C54.2111 298.154 53.4523 298.457 52.88 299L51 300.86V294C51 293.735 51.1054 293.48 51.2929 293.293C51.4804 293.105 51.7348 293 52 293H66C66.2652 293 66.5196 293.105 66.7071 293.293C66.8946 293.48 67 293.735 67 294V302.86ZM60.5 295C60.2033 295 59.9133 295.088 59.6666 295.253C59.42 295.418 59.2277 295.652 59.1142 295.926C59.0006 296.2 58.9709 296.502 59.0288 296.793C59.0867 297.084 59.2296 297.351 59.4393 297.561C59.6491 297.77 59.9164 297.913 60.2074 297.971C60.4983 298.029 60.7999 297.999 61.074 297.886C61.3481 297.772 61.5824 297.58 61.7472 297.333C61.912 297.087 62 296.797 62 296.5C62 296.102 61.842 295.721 61.5607 295.439C61.2794 295.158 60.8978 295 60.5 295Z" fill="#1B1B1B"/>
<rect x="121" y="242" width="117" height="117" rx="2" fill="#EEEEEE"/>
<path d="M187 291H173C172.204 291 171.441 291.316 170.879 291.879C170.316 292.441 170 293.204 170 294V308C170 308.796 170.316 309.559 170.879 310.121C171.441 310.684 172.204 311 173 311H187C187.164 310.998 187.328 310.981 187.49 310.95L187.79 310.88H187.86H187.91L188.28 310.74L188.41 310.67C188.51 310.61 188.62 310.56 188.72 310.49C188.854 310.392 188.98 310.285 189.1 310.17L189.17 310.08C189.268 309.981 189.358 309.874 189.44 309.76L189.53 309.63C189.6 309.519 189.66 309.402 189.71 309.28C189.737 309.232 189.761 309.182 189.78 309.13C189.83 309.01 189.86 308.88 189.9 308.75V308.6C189.957 308.405 189.99 308.203 190 308V294C190 293.204 189.684 292.441 189.121 291.879C188.559 291.316 187.796 291 187 291ZM173 309C172.735 309 172.48 308.895 172.293 308.707C172.105 308.52 172 308.265 172 308V303.69L175.29 300.39C175.383 300.296 175.494 300.222 175.615 300.171C175.737 300.12 175.868 300.094 176 300.094C176.132 300.094 176.263 300.12 176.385 300.171C176.506 300.222 176.617 300.296 176.71 300.39L185.31 309H173ZM188 308C187.999 308.123 187.975 308.245 187.93 308.36C187.907 308.409 187.88 308.456 187.85 308.5C187.823 308.542 187.793 308.582 187.76 308.62L182.41 303.27L183.29 302.39C183.383 302.296 183.494 302.222 183.615 302.171C183.737 302.12 183.868 302.094 184 302.094C184.132 302.094 184.263 302.12 184.385 302.171C184.506 302.222 184.617 302.296 184.71 302.39L188 305.69V308ZM188 302.86L186.12 301C185.548 300.457 184.789 300.154 184 300.154C183.211 300.154 182.452 300.457 181.88 301L181 301.88L178.12 299C177.548 298.457 176.789 298.154 176 298.154C175.211 298.154 174.452 298.457 173.88 299L172 300.86V294C172 293.735 172.105 293.48 172.293 293.293C172.48 293.105 172.735 293 173 293H187C187.265 293 187.52 293.105 187.707 293.293C187.895 293.48 188 293.735 188 294V302.86ZM181.5 295C181.203 295 180.913 295.088 180.667 295.253C180.42 295.418 180.228 295.652 180.114 295.926C180.001 296.2 179.971 296.502 180.029 296.793C180.087 297.084 180.23 297.351 180.439 297.561C180.649 297.77 180.916 297.913 181.207 297.971C181.498 298.029 181.8 297.999 182.074 297.886C182.348 297.772 182.582 297.58 182.747 297.333C182.912 297.087 183 296.797 183 296.5C183 296.102 182.842 295.721 182.561 295.439C182.279 295.158 181.898 295 181.5 295Z" fill="#1B1B1B"/>
<rect x="242" y="242" width="117" height="117" rx="2" fill="#EEEEEE"/>
<path d="M308 291H294C293.204 291 292.441 291.316 291.879 291.879C291.316 292.441 291 293.204 291 294V308C291 308.796 291.316 309.559 291.879 310.121C292.441 310.684 293.204 311 294 311H308C308.164 310.998 308.328 310.981 308.49 310.95L308.79 310.88H308.86H308.91L309.28 310.74L309.41 310.67C309.51 310.61 309.62 310.56 309.72 310.49C309.854 310.392 309.98 310.285 310.1 310.17L310.17 310.08C310.268 309.981 310.358 309.874 310.44 309.76L310.53 309.63C310.6 309.519 310.66 309.402 310.71 309.28C310.737 309.232 310.761 309.182 310.78 309.13C310.83 309.01 310.86 308.88 310.9 308.75V308.6C310.957 308.405 310.99 308.203 311 308V294C311 293.204 310.684 292.441 310.121 291.879C309.559 291.316 308.796 291 308 291ZM294 309C293.735 309 293.48 308.895 293.293 308.707C293.105 308.52 293 308.265 293 308V303.69L296.29 300.39C296.383 300.296 296.494 300.222 296.615 300.171C296.737 300.12 296.868 300.094 297 300.094C297.132 300.094 297.263 300.12 297.385 300.171C297.506 300.222 297.617 300.296 297.71 300.39L306.31 309H294ZM309 308C308.999 308.123 308.975 308.245 308.93 308.36C308.907 308.409 308.88 308.456 308.85 308.5C308.823 308.542 308.793 308.582 308.76 308.62L303.41 303.27L304.29 302.39C304.383 302.296 304.494 302.222 304.615 302.171C304.737 302.12 304.868 302.094 305 302.094C305.132 302.094 305.263 302.12 305.385 302.171C305.506 302.222 305.617 302.296 305.71 302.39L309 305.69V308ZM309 302.86L307.12 301C306.548 300.457 305.789 300.154 305 300.154C304.211 300.154 303.452 300.457 302.88 301L302 301.88L299.12 299C298.548 298.457 297.789 298.154 297 298.154C296.211 298.154 295.452 298.457 294.88 299L293 300.86V294C293 293.735 293.105 293.48 293.293 293.293C293.48 293.105 293.735 293 294 293H308C308.265 293 308.52 293.105 308.707 293.293C308.895 293.48 309 293.735 309 294V302.86ZM302.5 295C302.203 295 301.913 295.088 301.667 295.253C301.42 295.418 301.228 295.652 301.114 295.926C301.001 296.2 300.971 296.502 301.029 296.793C301.087 297.084 301.23 297.351 301.439 297.561C301.649 297.77 301.916 297.913 302.207 297.971C302.498 298.029 302.8 297.999 303.074 297.886C303.348 297.772 303.582 297.58 303.747 297.333C303.912 297.087 304 296.797 304 296.5C304 296.102 303.842 295.721 303.561 295.439C303.279 295.158 302.898 295 302.5 295Z" fill="#1B1B1B"/>
<rect y="363" width="117" height="117" rx="2" fill="#EEEEEE"/>
<path d="M66 412H52C51.2044 412 50.4413 412.316 49.8787 412.879C49.3161 413.441 49 414.204 49 415V429C49 429.796 49.3161 430.559 49.8787 431.121C50.4413 431.684 51.2044 432 52 432H66C66.1645 431.998 66.3284 431.981 66.49 431.95L66.79 431.88H66.86H66.91L67.28 431.74L67.41 431.67C67.51 431.61 67.62 431.56 67.72 431.49C67.8535 431.392 67.9805 431.285 68.1 431.17L68.17 431.08C68.2682 430.981 68.3585 430.874 68.44 430.76L68.53 430.63C68.5998 430.519 68.6601 430.402 68.71 430.28C68.7374 430.232 68.7609 430.182 68.78 430.13C68.83 430.01 68.86 429.88 68.9 429.75V429.6C68.9567 429.405 68.9903 429.203 69 429V415C69 414.204 68.6839 413.441 68.1213 412.879C67.5587 412.316 66.7956 412 66 412ZM52 430C51.7348 430 51.4804 429.895 51.2929 429.707C51.1054 429.52 51 429.265 51 429V424.69L54.29 421.39C54.383 421.296 54.4936 421.222 54.6154 421.171C54.7373 421.12 54.868 421.094 55 421.094C55.132 421.094 55.2627 421.12 55.3846 421.171C55.5064 421.222 55.617 421.296 55.71 421.39L64.31 430H52ZM67 429C66.9991 429.123 66.9753 429.245 66.93 429.36C66.9071 429.409 66.8804 429.456 66.85 429.5C66.8232 429.542 66.7931 429.582 66.76 429.62L61.41 424.27L62.29 423.39C62.383 423.296 62.4936 423.222 62.6154 423.171C62.7373 423.12 62.868 423.094 63 423.094C63.132 423.094 63.2627 423.12 63.3846 423.171C63.5064 423.222 63.617 423.296 63.71 423.39L67 426.69V429ZM67 423.86L65.12 422C64.5477 421.457 63.7889 421.154 63 421.154C62.2111 421.154 61.4523 421.457 60.88 422L60 422.88L57.12 420C56.5477 419.457 55.7889 419.154 55 419.154C54.2111 419.154 53.4523 419.457 52.88 420L51 421.86V415C51 414.735 51.1054 414.48 51.2929 414.293C51.4804 414.105 51.7348 414 52 414H66C66.2652 414 66.5196 414.105 66.7071 414.293C66.8946 414.48 67 414.735 67 415V423.86ZM60.5 416C60.2033 416 59.9133 416.088 59.6666 416.253C59.42 416.418 59.2277 416.652 59.1142 416.926C59.0006 417.2 58.9709 417.502 59.0288 417.793C59.0867 418.084 59.2296 418.351 59.4393 418.561C59.6491 418.77 59.9164 418.913 60.2074 418.971C60.4983 419.029 60.7999 418.999 61.074 418.886C61.3481 418.772 61.5824 418.58 61.7472 418.333C61.912 418.087 62 417.797 62 417.5C62 417.102 61.842 416.721 61.5607 416.439C61.2794 416.158 60.8978 416 60.5 416Z" fill="#1B1B1B"/>
<mask id="path-21-inside-3_5890_4007" fill="white">
<rect x="121" y="363" width="117" height="117" rx="2"/>
</mask>
<rect x="121" y="363" width="117" height="117" rx="2" fill="white"/>
<path d="M187 412H173C172.204 412 171.441 412.316 170.879 412.879C170.316 413.441 170 414.204 170 415V429C170 429.796 170.316 430.559 170.879 431.121C171.441 431.684 172.204 432 173 432H187C187.164 431.998 187.328 431.981 187.49 431.95L187.79 431.88H187.86H187.91L188.28 431.74L188.41 431.67C188.51 431.61 188.62 431.56 188.72 431.49C188.854 431.392 188.98 431.285 189.1 431.17L189.17 431.08C189.268 430.981 189.358 430.874 189.44 430.76L189.53 430.63C189.6 430.519 189.66 430.402 189.71 430.28C189.737 430.232 189.761 430.182 189.78 430.13C189.83 430.01 189.86 429.88 189.9 429.75V429.6C189.957 429.405 189.99 429.203 190 429V415C190 414.204 189.684 413.441 189.121 412.879C188.559 412.316 187.796 412 187 412ZM173 430C172.735 430 172.48 429.895 172.293 429.707C172.105 429.52 172 429.265 172 429V424.69L175.29 421.39C175.383 421.296 175.494 421.222 175.615 421.171C175.737 421.12 175.868 421.094 176 421.094C176.132 421.094 176.263 421.12 176.385 421.171C176.506 421.222 176.617 421.296 176.71 421.39L185.31 430H173ZM188 429C187.999 429.123 187.975 429.245 187.93 429.36C187.907 429.409 187.88 429.456 187.85 429.5C187.823 429.542 187.793 429.582 187.76 429.62L182.41 424.27L183.29 423.39C183.383 423.296 183.494 423.222 183.615 423.171C183.737 423.12 183.868 423.094 184 423.094C184.132 423.094 184.263 423.12 184.385 423.171C184.506 423.222 184.617 423.296 184.71 423.39L188 426.69V429ZM188 423.86L186.12 422C185.548 421.457 184.789 421.154 184 421.154C183.211 421.154 182.452 421.457 181.88 422L181 422.88L178.12 420C177.548 419.457 176.789 419.154 176 419.154C175.211 419.154 174.452 419.457 173.88 420L172 421.86V415C172 414.735 172.105 414.48 172.293 414.293C172.48 414.105 172.735 414 173 414H187C187.265 414 187.52 414.105 187.707 414.293C187.895 414.48 188 414.735 188 415V423.86ZM181.5 416C181.203 416 180.913 416.088 180.667 416.253C180.42 416.418 180.228 416.652 180.114 416.926C180.001 417.2 179.971 417.502 180.029 417.793C180.087 418.084 180.23 418.351 180.439 418.561C180.649 418.77 180.916 418.913 181.207 418.971C181.498 419.029 181.8 418.999 182.074 418.886C182.348 418.772 182.582 418.58 182.747 418.333C182.912 418.087 183 417.797 183 417.5C183 417.102 182.842 416.721 182.561 416.439C182.279 416.158 181.898 416 181.5 416Z" fill="#1B1B1B"/>
<rect x="121" y="363" width="117" height="117" rx="2" stroke="#1B1B1B" stroke-width="6" mask="url(#path-21-inside-3_5890_4007)"/>
<rect x="242" y="363" width="117" height="117" rx="2" fill="#EEEEEE"/>
<path d="M308 412H294C293.204 412 292.441 412.316 291.879 412.879C291.316 413.441 291 414.204 291 415V429C291 429.796 291.316 430.559 291.879 431.121C292.441 431.684 293.204 432 294 432H308C308.164 431.998 308.328 431.981 308.49 431.95L308.79 431.88H308.86H308.91L309.28 431.74L309.41 431.67C309.51 431.61 309.62 431.56 309.72 431.49C309.854 431.392 309.98 431.285 310.1 431.17L310.17 431.08C310.268 430.981 310.358 430.874 310.44 430.76L310.53 430.63C310.6 430.519 310.66 430.402 310.71 430.28C310.737 430.232 310.761 430.182 310.78 430.13C310.83 430.01 310.86 429.88 310.9 429.75V429.6C310.957 429.405 310.99 429.203 311 429V415C311 414.204 310.684 413.441 310.121 412.879C309.559 412.316 308.796 412 308 412ZM294 430C293.735 430 293.48 429.895 293.293 429.707C293.105 429.52 293 429.265 293 429V424.69L296.29 421.39C296.383 421.296 296.494 421.222 296.615 421.171C296.737 421.12 296.868 421.094 297 421.094C297.132 421.094 297.263 421.12 297.385 421.171C297.506 421.222 297.617 421.296 297.71 421.39L306.31 430H294ZM309 429C308.999 429.123 308.975 429.245 308.93 429.36C308.907 429.409 308.88 429.456 308.85 429.5C308.823 429.542 308.793 429.582 308.76 429.62L303.41 424.27L304.29 423.39C304.383 423.296 304.494 423.222 304.615 423.171C304.737 423.12 304.868 423.094 305 423.094C305.132 423.094 305.263 423.12 305.385 423.171C305.506 423.222 305.617 423.296 305.71 423.39L309 426.69V429ZM309 423.86L307.12 422C306.548 421.457 305.789 421.154 305 421.154C304.211 421.154 303.452 421.457 302.88 422L302 422.88L299.12 420C298.548 419.457 297.789 419.154 297 419.154C296.211 419.154 295.452 419.457 294.88 420L293 421.86V415C293 414.735 293.105 414.48 293.293 414.293C293.48 414.105 293.735 414 294 414H308C308.265 414 308.52 414.105 308.707 414.293C308.895 414.48 309 414.735 309 415V423.86ZM302.5 416C302.203 416 301.913 416.088 301.667 416.253C301.42 416.418 301.228 416.652 301.114 416.926C301.001 417.2 300.971 417.502 301.029 417.793C301.087 418.084 301.23 418.351 301.439 418.561C301.649 418.77 301.916 418.913 302.207 418.971C302.498 419.029 302.8 418.999 303.074 418.886C303.348 418.772 303.582 418.58 303.747 418.333C303.912 418.087 304 417.797 304 417.5C304 417.102 303.842 416.721 303.561 416.439C303.279 416.158 302.898 416 302.5 416Z" fill="#1B1B1B"/>
<rect y="484" width="117" height="117" rx="2" fill="#EEEEEE"/>
<path d="M66 533H52C51.2044 533 50.4413 533.316 49.8787 533.879C49.3161 534.441 49 535.204 49 536V550C49 550.796 49.3161 551.559 49.8787 552.121C50.4413 552.684 51.2044 553 52 553H66C66.1645 552.998 66.3284 552.981 66.49 552.95L66.79 552.88H66.86H66.91L67.28 552.74L67.41 552.67C67.51 552.61 67.62 552.56 67.72 552.49C67.8535 552.392 67.9805 552.285 68.1 552.17L68.17 552.08C68.2682 551.981 68.3585 551.874 68.44 551.76L68.53 551.63C68.5998 551.519 68.6601 551.402 68.71 551.28C68.7374 551.232 68.7609 551.182 68.78 551.13C68.83 551.01 68.86 550.88 68.9 550.75V550.6C68.9567 550.405 68.9903 550.203 69 550V536C69 535.204 68.6839 534.441 68.1213 533.879C67.5587 533.316 66.7956 533 66 533ZM52 551C51.7348 551 51.4804 550.895 51.2929 550.707C51.1054 550.52 51 550.265 51 550V545.69L54.29 542.39C54.383 542.296 54.4936 542.222 54.6154 542.171C54.7373 542.12 54.868 542.094 55 542.094C55.132 542.094 55.2627 542.12 55.3846 542.171C55.5064 542.222 55.617 542.296 55.71 542.39L64.31 551H52ZM67 550C66.9991 550.123 66.9753 550.245 66.93 550.36C66.9071 550.409 66.8804 550.456 66.85 550.5C66.8232 550.542 66.7931 550.582 66.76 550.62L61.41 545.27L62.29 544.39C62.383 544.296 62.4936 544.222 62.6154 544.171C62.7373 544.12 62.868 544.094 63 544.094C63.132 544.094 63.2627 544.12 63.3846 544.171C63.5064 544.222 63.617 544.296 63.71 544.39L67 547.69V550ZM67 544.86L65.12 543C64.5477 542.457 63.7889 542.154 63 542.154C62.2111 542.154 61.4523 542.457 60.88 543L60 543.88L57.12 541C56.5477 540.457 55.7889 540.154 55 540.154C54.2111 540.154 53.4523 540.457 52.88 541L51 542.86V536C51 535.735 51.1054 535.48 51.2929 535.293C51.4804 535.105 51.7348 535 52 535H66C66.2652 535 66.5196 535.105 66.7071 535.293C66.8946 535.48 67 535.735 67 536V544.86ZM60.5 537C60.2033 537 59.9133 537.088 59.6666 537.253C59.42 537.418 59.2277 537.652 59.1142 537.926C59.0006 538.2 58.9709 538.502 59.0288 538.793C59.0867 539.084 59.2296 539.351 59.4393 539.561C59.6491 539.77 59.9164 539.913 60.2074 539.971C60.4983 540.029 60.7999 539.999 61.074 539.886C61.3481 539.772 61.5824 539.58 61.7472 539.333C61.912 539.087 62 538.797 62 538.5C62 538.102 61.842 537.721 61.5607 537.439C61.2794 537.158 60.8978 537 60.5 537Z" fill="#1B1B1B"/>
<rect x="121" y="484" width="117" height="117" rx="2" fill="#EEEEEE"/>
<path d="M187 533H173C172.204 533 171.441 533.316 170.879 533.879C170.316 534.441 170 535.204 170 536V550C170 550.796 170.316 551.559 170.879 552.121C171.441 552.684 172.204 553 173 553H187C187.164 552.998 187.328 552.981 187.49 552.95L187.79 552.88H187.86H187.91L188.28 552.74L188.41 552.67C188.51 552.61 188.62 552.56 188.72 552.49C188.854 552.392 188.98 552.285 189.1 552.17L189.17 552.08C189.268 551.981 189.358 551.874 189.44 551.76L189.53 551.63C189.6 551.519 189.66 551.402 189.71 551.28C189.737 551.232 189.761 551.182 189.78 551.13C189.83 551.01 189.86 550.88 189.9 550.75V550.6C189.957 550.405 189.99 550.203 190 550V536C190 535.204 189.684 534.441 189.121 533.879C188.559 533.316 187.796 533 187 533ZM173 551C172.735 551 172.48 550.895 172.293 550.707C172.105 550.52 172 550.265 172 550V545.69L175.29 542.39C175.383 542.296 175.494 542.222 175.615 542.171C175.737 542.12 175.868 542.094 176 542.094C176.132 542.094 176.263 542.12 176.385 542.171C176.506 542.222 176.617 542.296 176.71 542.39L185.31 551H173ZM188 550C187.999 550.123 187.975 550.245 187.93 550.36C187.907 550.409 187.88 550.456 187.85 550.5C187.823 550.542 187.793 550.582 187.76 550.62L182.41 545.27L183.29 544.39C183.383 544.296 183.494 544.222 183.615 544.171C183.737 544.12 183.868 544.094 184 544.094C184.132 544.094 184.263 544.12 184.385 544.171C184.506 544.222 184.617 544.296 184.71 544.39L188 547.69V550ZM188 544.86L186.12 543C185.548 542.457 184.789 542.154 184 542.154C183.211 542.154 182.452 542.457 181.88 543L181 543.88L178.12 541C177.548 540.457 176.789 540.154 176 540.154C175.211 540.154 174.452 540.457 173.88 541L172 542.86V536C172 535.735 172.105 535.48 172.293 535.293C172.48 535.105 172.735 535 173 535H187C187.265 535 187.52 535.105 187.707 535.293C187.895 535.48 188 535.735 188 536V544.86ZM181.5 537C181.203 537 180.913 537.088 180.667 537.253C180.42 537.418 180.228 537.652 180.114 537.926C180.001 538.2 179.971 538.502 180.029 538.793C180.087 539.084 180.23 539.351 180.439 539.561C180.649 539.77 180.916 539.913 181.207 539.971C181.498 540.029 181.8 539.999 182.074 539.886C182.348 539.772 182.582 539.58 182.747 539.333C182.912 539.087 183 538.797 183 538.5C183 538.102 182.842 537.721 182.561 537.439C182.279 537.158 181.898 537 181.5 537Z" fill="#1B1B1B"/>
<rect x="242" y="484" width="117" height="117" rx="2" fill="#EEEEEE"/>
<path d="M308 533H294C293.204 533 292.441 533.316 291.879 533.879C291.316 534.441 291 535.204 291 536V550C291 550.796 291.316 551.559 291.879 552.121C292.441 552.684 293.204 553 294 553H308C308.164 552.998 308.328 552.981 308.49 552.95L308.79 552.88H308.86H308.91L309.28 552.74L309.41 552.67C309.51 552.61 309.62 552.56 309.72 552.49C309.854 552.392 309.98 552.285 310.1 552.17L310.17 552.08C310.268 551.981 310.358 551.874 310.44 551.76L310.53 551.63C310.6 551.519 310.66 551.402 310.71 551.28C310.737 551.232 310.761 551.182 310.78 551.13C310.83 551.01 310.86 550.88 310.9 550.75V550.6C310.957 550.405 310.99 550.203 311 550V536C311 535.204 310.684 534.441 310.121 533.879C309.559 533.316 308.796 533 308 533ZM294 551C293.735 551 293.48 550.895 293.293 550.707C293.105 550.52 293 550.265 293 550V545.69L296.29 542.39C296.383 542.296 296.494 542.222 296.615 542.171C296.737 542.12 296.868 542.094 297 542.094C297.132 542.094 297.263 542.12 297.385 542.171C297.506 542.222 297.617 542.296 297.71 542.39L306.31 551H294ZM309 550C308.999 550.123 308.975 550.245 308.93 550.36C308.907 550.409 308.88 550.456 308.85 550.5C308.823 550.542 308.793 550.582 308.76 550.62L303.41 545.27L304.29 544.39C304.383 544.296 304.494 544.222 304.615 544.171C304.737 544.12 304.868 544.094 305 544.094C305.132 544.094 305.263 544.12 305.385 544.171C305.506 544.222 305.617 544.296 305.71 544.39L309 547.69V550ZM309 544.86L307.12 543C306.548 542.457 305.789 542.154 305 542.154C304.211 542.154 303.452 542.457 302.88 543L302 543.88L299.12 541C298.548 540.457 297.789 540.154 297 540.154C296.211 540.154 295.452 540.457 294.88 541L293 542.86V536C293 535.735 293.105 535.48 293.293 535.293C293.48 535.105 293.735 535 294 535H308C308.265 535 308.52 535.105 308.707 535.293C308.895 535.48 309 535.735 309 536V544.86ZM302.5 537C302.203 537 301.913 537.088 301.667 537.253C301.42 537.418 301.228 537.652 301.114 537.926C301.001 538.2 300.971 538.502 301.029 538.793C301.087 539.084 301.23 539.351 301.439 539.561C301.649 539.77 301.916 539.913 302.207 539.971C302.498 540.029 302.8 539.999 303.074 539.886C303.348 539.772 303.582 539.58 303.747 539.333C303.912 539.087 304 538.797 304 538.5C304 538.102 303.842 537.721 303.561 537.439C303.279 537.158 302.898 537 302.5 537Z" fill="#1B1B1B"/>
<rect y="605" width="117" height="117" rx="2" fill="#EEEEEE"/>
<path d="M66 654H52C51.2044 654 50.4413 654.316 49.8787 654.879C49.3161 655.441 49 656.204 49 657V671C49 671.796 49.3161 672.559 49.8787 673.121C50.4413 673.684 51.2044 674 52 674H66C66.1645 673.998 66.3284 673.981 66.49 673.95L66.79 673.88H66.86H66.91L67.28 673.74L67.41 673.67C67.51 673.61 67.62 673.56 67.72 673.49C67.8535 673.392 67.9805 673.285 68.1 673.17L68.17 673.08C68.2682 672.981 68.3585 672.874 68.44 672.76L68.53 672.63C68.5998 672.519 68.6601 672.402 68.71 672.28C68.7374 672.232 68.7609 672.182 68.78 672.13C68.83 672.01 68.86 671.88 68.9 671.75V671.6C68.9567 671.405 68.9903 671.203 69 671V657C69 656.204 68.6839 655.441 68.1213 654.879C67.5587 654.316 66.7956 654 66 654ZM52 672C51.7348 672 51.4804 671.895 51.2929 671.707C51.1054 671.52 51 671.265 51 671V666.69L54.29 663.39C54.383 663.296 54.4936 663.222 54.6154 663.171C54.7373 663.12 54.868 663.094 55 663.094C55.132 663.094 55.2627 663.12 55.3846 663.171C55.5064 663.222 55.617 663.296 55.71 663.39L64.31 672H52ZM67 671C66.9991 671.123 66.9753 671.245 66.93 671.36C66.9071 671.409 66.8804 671.456 66.85 671.5C66.8232 671.542 66.7931 671.582 66.76 671.62L61.41 666.27L62.29 665.39C62.383 665.296 62.4936 665.222 62.6154 665.171C62.7373 665.12 62.868 665.094 63 665.094C63.132 665.094 63.2627 665.12 63.3846 665.171C63.5064 665.222 63.617 665.296 63.71 665.39L67 668.69V671ZM67 665.86L65.12 664C64.5477 663.457 63.7889 663.154 63 663.154C62.2111 663.154 61.4523 663.457 60.88 664L60 664.88L57.12 662C56.5477 661.457 55.7889 661.154 55 661.154C54.2111 661.154 53.4523 661.457 52.88 662L51 663.86V657C51 656.735 51.1054 656.48 51.2929 656.293C51.4804 656.105 51.7348 656 52 656H66C66.2652 656 66.5196 656.105 66.7071 656.293C66.8946 656.48 67 656.735 67 657V665.86ZM60.5 658C60.2033 658 59.9133 658.088 59.6666 658.253C59.42 658.418 59.2277 658.652 59.1142 658.926C59.0006 659.2 58.9709 659.502 59.0288 659.793C59.0867 660.084 59.2296 660.351 59.4393 660.561C59.6491 660.77 59.9164 660.913 60.2074 660.971C60.4983 661.029 60.7999 660.999 61.074 660.886C61.3481 660.772 61.5824 660.58 61.7472 660.333C61.912 660.087 62 659.797 62 659.5C62 659.102 61.842 658.721 61.5607 658.439C61.2794 658.158 60.8978 658 60.5 658Z" fill="#1B1B1B"/>
<rect x="121" y="605" width="117" height="117" rx="2" fill="#EEEEEE"/>
<path d="M187 654H173C172.204 654 171.441 654.316 170.879 654.879C170.316 655.441 170 656.204 170 657V671C170 671.796 170.316 672.559 170.879 673.121C171.441 673.684 172.204 674 173 674H187C187.164 673.998 187.328 673.981 187.49 673.95L187.79 673.88H187.86H187.91L188.28 673.74L188.41 673.67C188.51 673.61 188.62 673.56 188.72 673.49C188.854 673.392 188.98 673.285 189.1 673.17L189.17 673.08C189.268 672.981 189.358 672.874 189.44 672.76L189.53 672.63C189.6 672.519 189.66 672.402 189.71 672.28C189.737 672.232 189.761 672.182 189.78 672.13C189.83 672.01 189.86 671.88 189.9 671.75V671.6C189.957 671.405 189.99 671.203 190 671V657C190 656.204 189.684 655.441 189.121 654.879C188.559 654.316 187.796 654 187 654ZM173 672C172.735 672 172.48 671.895 172.293 671.707C172.105 671.52 172 671.265 172 671V666.69L175.29 663.39C175.383 663.296 175.494 663.222 175.615 663.171C175.737 663.12 175.868 663.094 176 663.094C176.132 663.094 176.263 663.12 176.385 663.171C176.506 663.222 176.617 663.296 176.71 663.39L185.31 672H173ZM188 671C187.999 671.123 187.975 671.245 187.93 671.36C187.907 671.409 187.88 671.456 187.85 671.5C187.823 671.542 187.793 671.582 187.76 671.62L182.41 666.27L183.29 665.39C183.383 665.296 183.494 665.222 183.615 665.171C183.737 665.12 183.868 665.094 184 665.094C184.132 665.094 184.263 665.12 184.385 665.171C184.506 665.222 184.617 665.296 184.71 665.39L188 668.69V671ZM188 665.86L186.12 664C185.548 663.457 184.789 663.154 184 663.154C183.211 663.154 182.452 663.457 181.88 664L181 664.88L178.12 662C177.548 661.457 176.789 661.154 176 661.154C175.211 661.154 174.452 661.457 173.88 662L172 663.86V657C172 656.735 172.105 656.48 172.293 656.293C172.48 656.105 172.735 656 173 656H187C187.265 656 187.52 656.105 187.707 656.293C187.895 656.48 188 656.735 188 657V665.86ZM181.5 658C181.203 658 180.913 658.088 180.667 658.253C180.42 658.418 180.228 658.652 180.114 658.926C180.001 659.2 179.971 659.502 180.029 659.793C180.087 660.084 180.23 660.351 180.439 660.561C180.649 660.77 180.916 660.913 181.207 660.971C181.498 661.029 181.8 660.999 182.074 660.886C182.348 660.772 182.582 660.58 182.747 660.333C182.912 660.087 183 659.797 183 659.5C183 659.102 182.842 658.721 182.561 658.439C182.279 658.158 181.898 658 181.5 658Z" fill="#1B1B1B"/>
<rect x="242" y="605" width="117" height="117" rx="2" fill="#EEEEEE"/>
<path d="M308 654H294C293.204 654 292.441 654.316 291.879 654.879C291.316 655.441 291 656.204 291 657V671C291 671.796 291.316 672.559 291.879 673.121C292.441 673.684 293.204 674 294 674H308C308.164 673.998 308.328 673.981 308.49 673.95L308.79 673.88H308.86H308.91L309.28 673.74L309.41 673.67C309.51 673.61 309.62 673.56 309.72 673.49C309.854 673.392 309.98 673.285 310.1 673.17L310.17 673.08C310.268 672.981 310.358 672.874 310.44 672.76L310.53 672.63C310.6 672.519 310.66 672.402 310.71 672.28C310.737 672.232 310.761 672.182 310.78 672.13C310.83 672.01 310.86 671.88 310.9 671.75V671.6C310.957 671.405 310.99 671.203 311 671V657C311 656.204 310.684 655.441 310.121 654.879C309.559 654.316 308.796 654 308 654ZM294 672C293.735 672 293.48 671.895 293.293 671.707C293.105 671.52 293 671.265 293 671V666.69L296.29 663.39C296.383 663.296 296.494 663.222 296.615 663.171C296.737 663.12 296.868 663.094 297 663.094C297.132 663.094 297.263 663.12 297.385 663.171C297.506 663.222 297.617 663.296 297.71 663.39L306.31 672H294ZM309 671C308.999 671.123 308.975 671.245 308.93 671.36C308.907 671.409 308.88 671.456 308.85 671.5C308.823 671.542 308.793 671.582 308.76 671.62L303.41 666.27L304.29 665.39C304.383 665.296 304.494 665.222 304.615 665.171C304.737 665.12 304.868 665.094 305 665.094C305.132 665.094 305.263 665.12 305.385 665.171C305.506 665.222 305.617 665.296 305.71 665.39L309 668.69V671ZM309 665.86L307.12 664C306.548 663.457 305.789 663.154 305 663.154C304.211 663.154 303.452 663.457 302.88 664L302 664.88L299.12 662C298.548 661.457 297.789 661.154 297 661.154C296.211 661.154 295.452 661.457 294.88 662L293 663.86V657C293 656.735 293.105 656.48 293.293 656.293C293.48 656.105 293.735 656 294 656H308C308.265 656 308.52 656.105 308.707 656.293C308.895 656.48 309 656.735 309 657V665.86ZM302.5 658C302.203 658 301.913 658.088 301.667 658.253C301.42 658.418 301.228 658.652 301.114 658.926C301.001 659.2 300.971 659.502 301.029 659.793C301.087 660.084 301.23 660.351 301.439 660.561C301.649 660.77 301.916 660.913 302.207 660.971C302.498 661.029 302.8 660.999 303.074 660.886C303.348 660.772 303.582 660.58 303.747 660.333C303.912 660.087 304 659.797 304 659.5C304 659.102 303.842 658.721 303.561 658.439C303.279 658.158 302.898 658 302.5 658Z" fill="#1B1B1B"/>
</svg>
