<svg width="105" height="105" viewBox="0 0 105 105" fill="none" xmlns="http://www.w3.org/2000/svg">
<rect x="9.30029" y="9.30029" width="86" height="86" rx="7" fill="white"/>
<path d="M59.3003 42.3003H45.3003C44.5046 42.3003 43.7416 42.6164 43.179 43.179C42.6164 43.7416 42.3003 44.5046 42.3003 45.3003V59.3003C42.3003 60.0959 42.6164 60.859 43.179 61.4216C43.7416 61.9842 44.5046 62.3003 45.3003 62.3003H59.3003C59.4648 62.298 59.6287 62.2813 59.7903 62.2503L60.0903 62.1803H60.1603H60.2103L60.5803 62.0403L60.7103 61.9703C60.8103 61.9103 60.9203 61.8603 61.0203 61.7903C61.1538 61.6921 61.2808 61.5852 61.4003 61.4703L61.4703 61.3803C61.5685 61.2808 61.6587 61.1738 61.7403 61.0603L61.8303 60.9303C61.9001 60.819 61.9604 60.7019 62.0103 60.5803C62.0377 60.5323 62.0611 60.4821 62.0803 60.4303C62.1303 60.3103 62.1603 60.1803 62.2003 60.0503V59.9003C62.257 59.7049 62.2906 59.5035 62.3003 59.3003V45.3003C62.3003 44.5046 61.9842 43.7416 61.4216 43.179C60.859 42.6164 60.0959 42.3003 59.3003 42.3003ZM45.3003 60.3003C45.0351 60.3003 44.7807 60.1949 44.5932 60.0074C44.4056 59.8199 44.3003 59.5655 44.3003 59.3003V54.9903L47.5903 51.6903C47.6833 51.5966 47.7939 51.5222 47.9157 51.4714C48.0376 51.4206 48.1683 51.3945 48.3003 51.3945C48.4323 51.3945 48.563 51.4206 48.6849 51.4714C48.8067 51.5222 48.9173 51.5966 49.0103 51.6903L57.6103 60.3003H45.3003ZM60.3003 59.3003C60.2994 59.4236 60.2756 59.5456 60.2303 59.6603C60.2074 59.709 60.1807 59.7559 60.1503 59.8003C60.1235 59.8426 60.0934 59.8828 60.0603 59.9203L54.7103 54.5703L55.5903 53.6903C55.6833 53.5966 55.7939 53.5222 55.9157 53.4714C56.0376 53.4206 56.1683 53.3945 56.3003 53.3945C56.4323 53.3945 56.563 53.4206 56.6849 53.4714C56.8067 53.5222 56.9173 53.5966 57.0103 53.6903L60.3003 56.9903V59.3003ZM60.3003 54.1603L58.4203 52.3003C57.848 51.7573 57.0892 51.4546 56.3003 51.4546C55.5114 51.4546 54.7526 51.7573 54.1803 52.3003L53.3003 53.1803L50.4203 50.3003C49.848 49.7573 49.0892 49.4546 48.3003 49.4546C47.5114 49.4546 46.7526 49.7573 46.1803 50.3003L44.3003 52.1603V45.3003C44.3003 45.0351 44.4056 44.7807 44.5932 44.5932C44.7807 44.4056 45.0351 44.3003 45.3003 44.3003H59.3003C59.5655 44.3003 59.8199 44.4056 60.0074 44.5932C60.1949 44.7807 60.3003 45.0351 60.3003 45.3003V54.1603ZM53.8003 46.3003C53.5036 46.3003 53.2136 46.3883 52.9669 46.5531C52.7203 46.7179 52.528 46.9522 52.4145 47.2263C52.3009 47.5004 52.2712 47.802 52.3291 48.0929C52.387 48.3839 52.5299 48.6512 52.7396 48.861C52.9494 49.0707 53.2167 49.2136 53.5077 49.2715C53.7986 49.3293 54.1002 49.2996 54.3743 49.1861C54.6484 49.0726 54.8827 48.8803 55.0475 48.6336C55.2123 48.387 55.3003 48.097 55.3003 47.8003C55.3003 47.4025 55.1423 47.0209 54.861 46.7396C54.5796 46.4583 54.1981 46.3003 53.8003 46.3003Z" fill="#1B1B1B"/>
<rect x="9.30029" y="9.30029" width="86" height="86" rx="7" stroke="#1B1B1B" stroke-width="2"/>
<rect x="1.18864" y="19.3517" width="86" height="86" rx="7" transform="rotate(-12.1927 1.18864 19.3517)" fill="white"/>
<g clip-path="url(#clip0_5938_4631)">
<path d="M57.0306 41.0473L43.3464 44.0041C42.5687 44.1721 41.8896 44.6422 41.4585 45.311C41.0274 45.9797 40.8796 46.7923 41.0477 47.57L44.0045 61.2542C44.1725 62.0319 44.6426 62.711 45.3113 63.1421C45.9801 63.5732 46.7927 63.721 47.5704 63.553L61.2546 60.5962C61.4149 60.5592 61.5716 60.5082 61.723 60.4438L62.0014 60.312L62.0698 60.2972L62.1187 60.2867L62.4508 60.0717L62.5631 59.9758C62.6482 59.896 62.7451 59.8239 62.8281 59.7344C62.9378 59.6102 63.0393 59.4789 63.1319 59.3414L63.1813 59.2386C63.2563 59.1206 63.3219 58.997 63.3777 58.8688L63.4382 58.7227C63.4829 58.5991 63.5171 58.472 63.5402 58.3426C63.5569 58.2899 63.5692 58.2359 63.5769 58.1812C63.6005 58.0533 63.6023 57.9199 63.614 57.7844L63.5823 57.6378C63.5964 57.4348 63.5867 57.2309 63.5533 57.0302L60.5965 43.346C60.4285 42.5683 59.9584 41.8892 59.2896 41.4581C58.6209 41.027 57.8083 40.8793 57.0306 41.0473ZM47.148 61.5981C46.8888 61.6541 46.6179 61.6048 46.395 61.4611C46.1721 61.3174 46.0154 61.0911 45.9593 60.8318L45.0491 56.619L47.5679 52.6986C47.639 52.5874 47.7314 52.4913 47.8398 52.416C47.9481 52.3406 48.0704 52.2874 48.1994 52.2596C48.3284 52.2317 48.4617 52.2296 48.5916 52.2535C48.7214 52.2774 48.8452 52.3268 48.9559 52.3987L59.1803 58.9982L47.148 61.5981ZM61.5984 57.4526C61.6236 57.5733 61.6261 57.6976 61.606 57.8193C61.594 57.8718 61.5777 57.9232 61.5574 57.973C61.5402 58.0201 61.5193 58.0656 61.4948 58.1093L55.1356 54.0099L55.8098 52.9639C55.8809 52.8527 55.9733 52.7566 56.0817 52.6812C56.1901 52.6059 56.3123 52.5527 56.4414 52.5248C56.5704 52.497 56.7037 52.4949 56.8335 52.5188C56.9633 52.5427 57.0872 52.592 57.1978 52.664L61.1106 55.1947L61.5984 57.4526ZM60.5129 52.4286L58.2824 51.0076C57.6084 50.5977 56.8027 50.4621 56.0316 50.6287C55.2605 50.7953 54.5828 51.2514 54.1381 51.9031L53.4638 52.9491L50.0405 50.7423C49.3664 50.3324 48.5608 50.1968 47.7897 50.3634C47.0186 50.53 46.3408 50.9862 45.8961 51.6378L44.4514 53.8529L43.0025 47.1476C42.9465 46.8884 42.9958 46.6175 43.1395 46.3946C43.2832 46.1717 43.5096 46.015 43.7688 45.959L57.453 43.0022C57.7122 42.9462 57.9831 42.9954 58.206 43.1391C58.4289 43.2828 58.5856 43.5092 58.6416 43.7684L60.5129 52.4286ZM52.4995 46.1187C52.2095 46.1813 51.9446 46.3286 51.7383 46.5418C51.532 46.755 51.3935 47.0246 51.3405 47.3164C51.2874 47.6083 51.322 47.9094 51.4401 48.1816C51.5581 48.4538 51.7542 48.6848 52.0035 48.8456C52.2529 49.0063 52.5443 49.0895 52.8409 49.0846C53.1376 49.0797 53.4261 48.987 53.67 48.8182C53.9139 48.6493 54.1023 48.4119 54.2113 48.136C54.3203 47.8601 54.3451 47.558 54.2824 47.268C54.1984 46.8792 53.9633 46.5396 53.629 46.3241C53.2946 46.1085 52.8883 46.0346 52.4995 46.1187Z" fill="#1B1B1B"/>
</g>
<rect x="1.18864" y="19.3517" width="86" height="86" rx="7" transform="rotate(-12.1927 1.18864 19.3517)" stroke="#1B1B1B" stroke-width="2"/>
<defs>
<clipPath id="clip0_5938_4631">
<rect width="24" height="24" fill="white" transform="translate(38.0366 43.105) rotate(-12.1927)"/>
</clipPath>
</defs>
</svg>
