<svg width="399" height="104" viewBox="0 0 399 104" fill="none" xmlns="http://www.w3.org/2000/svg">
<g filter="url(#filter0_d_5712_2549)">
<rect width="375" height="80" transform="translate(12 16)" fill="white"/>
<path d="M57.5 34L51.5 28.74C50.95 28.2481 50.2379 27.9761 49.5 27.9761C48.762 27.9761 48.05 28.2481 47.5 28.74L41.5 34C41.1823 34.2841 40.9289 34.6326 40.7564 35.0223C40.584 35.4119 40.4966 35.8339 40.5 36.26V45C40.5 45.7957 40.816 46.5587 41.3787 47.1213C41.9413 47.6839 42.7043 48 43.5 48H55.5C56.2956 48 57.0587 47.6839 57.6213 47.1213C58.1839 46.5587 58.5 45.7957 58.5 45V36.25C58.5019 35.8256 58.4138 35.4055 58.2414 35.0177C58.0691 34.6298 57.8163 34.283 57.5 34ZM51.5 46H47.5V41C47.5 40.7348 47.6053 40.4804 47.7929 40.2929C47.9804 40.1054 48.2348 40 48.5 40H50.5C50.7652 40 51.0195 40.1054 51.2071 40.2929C51.3946 40.4804 51.5 40.7348 51.5 41V46ZM56.5 45C56.5 45.2652 56.3946 45.5196 56.2071 45.7071C56.0195 45.8946 55.7652 46 55.5 46H53.5V41C53.5 40.2044 53.1839 39.4413 52.6213 38.8787C52.0587 38.3161 51.2956 38 50.5 38H48.5C47.7043 38 46.9413 38.3161 46.3787 38.8787C45.816 39.4413 45.5 40.2044 45.5 41V46H43.5C43.2348 46 42.9804 45.8946 42.7929 45.7071C42.6053 45.5196 42.5 45.2652 42.5 45V36.25C42.5002 36.108 42.5306 35.9677 42.5892 35.8384C42.6478 35.7091 42.7333 35.5937 42.84 35.5L48.84 30.25C49.0225 30.0897 49.2571 30.0013 49.5 30.0013C49.7429 30.0013 49.9775 30.0897 50.16 30.25L56.16 35.5C56.2666 35.5937 56.3521 35.7091 56.4108 35.8384C56.4694 35.9677 56.4998 36.108 56.5 36.25V45Z" fill="#1B1B1B"/>
<path fill-rule="evenodd" clip-rule="evenodd" d="M129.5 37C129.5 40.3137 126.814 43 123.5 43C120.186 43 117.5 40.3137 117.5 37C117.5 33.6863 120.186 31 123.5 31C126.814 31 129.5 33.6863 129.5 37ZM128.406 43.3199C127.051 44.3729 125.349 45 123.5 45C119.082 45 115.5 41.4183 115.5 37C115.5 32.5817 119.082 29 123.5 29C127.918 29 131.5 32.5817 131.5 37C131.5 38.8487 130.873 40.551 129.82 41.9056L134.207 46.2929C134.598 46.6834 134.598 47.3166 134.207 47.7071C133.817 48.0976 133.183 48.0976 132.793 47.7071L128.406 43.3199Z" fill="#1B1B1B"/>
<path d="M199.5 28C197.522 28 195.589 28.5865 193.944 29.6853C192.3 30.7841 191.018 32.3459 190.261 34.1732C189.504 36.0004 189.306 38.0111 189.692 39.9509C190.078 41.8907 191.03 43.6725 192.429 45.0711C193.827 46.4696 195.609 47.422 197.549 47.8079C199.489 48.1937 201.5 47.9957 203.327 47.2388C205.154 46.4819 206.716 45.2002 207.815 43.5557C208.914 41.9112 209.5 39.9778 209.5 38C209.5 36.6868 209.241 35.3864 208.739 34.1732C208.236 32.9599 207.5 31.8575 206.571 30.9289C205.642 30.0003 204.54 29.2638 203.327 28.7612C202.114 28.2587 200.813 28 199.5 28ZM199.5 46C197.918 46 196.371 45.5308 195.055 44.6518C193.74 43.7727 192.714 42.5233 192.109 41.0615C191.503 39.5997 191.345 37.9911 191.654 36.4393C191.962 34.8874 192.724 33.462 193.843 32.3431C194.962 31.2243 196.387 30.4624 197.939 30.1537C199.491 29.845 201.1 30.0035 202.561 30.609C204.023 31.2145 205.273 32.2398 206.152 33.5554C207.031 34.871 207.5 36.4177 207.5 38C207.5 40.1217 206.657 42.1566 205.157 43.6569C203.657 45.1571 201.622 46 199.5 46ZM203.5 37H200.5V34C200.5 33.7348 200.395 33.4804 200.207 33.2929C200.02 33.1054 199.765 33 199.5 33C199.235 33 198.98 33.1054 198.793 33.2929C198.605 33.4804 198.5 33.7348 198.5 34V37H195.5C195.235 37 194.98 37.1054 194.793 37.2929C194.605 37.4804 194.5 37.7348 194.5 38C194.5 38.2652 194.605 38.5196 194.793 38.7071C194.98 38.8946 195.235 39 195.5 39H198.5V42C198.5 42.2652 198.605 42.5196 198.793 42.7071C198.98 42.8946 199.235 43 199.5 43C199.765 43 200.02 42.8946 200.207 42.7071C200.395 42.5196 200.5 42.2652 200.5 42V39H203.5C203.765 39 204.02 38.8946 204.207 38.7071C204.395 38.5196 204.5 38.2652 204.5 38C204.5 37.7348 204.395 37.4804 204.207 37.2929C204.02 37.1054 203.765 37 203.5 37Z" fill="#1B1B1B"/>
<path d="M280.5 39.18V36C280.499 34.5831 279.996 33.2125 279.081 32.1308C278.165 31.0491 276.897 30.3261 275.5 30.09V29C275.5 28.7348 275.395 28.4804 275.207 28.2929C275.02 28.1054 274.765 28 274.5 28C274.235 28 273.98 28.1054 273.793 28.2929C273.605 28.4804 273.5 28.7348 273.5 29V30.09C272.103 30.3261 270.835 31.0491 269.919 32.1308C269.004 33.2125 268.501 34.5831 268.5 36V39.18C267.916 39.3863 267.411 39.7681 267.053 40.2729C266.695 40.7778 266.502 41.3811 266.5 42V44C266.5 44.2652 266.605 44.5196 266.793 44.7071C266.98 44.8946 267.235 45 267.5 45H270.64C270.87 45.8474 271.373 46.5954 272.071 47.1287C272.768 47.6621 273.622 47.951 274.5 47.951C275.378 47.951 276.232 47.6621 276.929 47.1287C277.627 46.5954 278.13 45.8474 278.36 45H281.5C281.765 45 282.02 44.8946 282.207 44.7071C282.395 44.5196 282.5 44.2652 282.5 44V42C282.498 41.3811 282.305 40.7778 281.947 40.2729C281.589 39.7681 281.084 39.3863 280.5 39.18ZM270.5 36C270.5 34.9391 270.921 33.9217 271.672 33.1716C272.422 32.4214 273.439 32 274.5 32C275.561 32 276.578 32.4214 277.328 33.1716C278.079 33.9217 278.5 34.9391 278.5 36V39H270.5V36ZM274.5 46C274.151 45.9979 273.809 45.9045 273.507 45.7291C273.205 45.5536 272.955 45.3023 272.78 45H276.22C276.045 45.3023 275.795 45.5536 275.493 45.7291C275.191 45.9045 274.849 45.9979 274.5 46ZM280.5 43H268.5V42C268.5 41.7348 268.605 41.4804 268.793 41.2929C268.98 41.1054 269.235 41 269.5 41H279.5C279.765 41 280.02 41.1054 280.207 41.2929C280.395 41.4804 280.5 41.7348 280.5 42V43Z" fill="#1B1B1B"/>
<path d="M349.5 28C347.561 28.0037 345.664 28.5713 344.041 29.6337C342.419 30.6962 341.14 32.2075 340.361 33.9838C339.582 35.76 339.336 37.7244 339.654 39.6378C339.972 41.5511 340.839 43.3308 342.15 44.76C343.086 45.775 344.223 46.5851 345.488 47.1392C346.753 47.6933 348.119 47.9793 349.5 47.9793C350.881 47.9793 352.247 47.6933 353.512 47.1392C354.777 46.5851 355.914 45.775 356.85 44.76C358.161 43.3308 359.028 41.5511 359.346 39.6378C359.664 37.7244 359.418 35.76 358.639 33.9838C357.86 32.2075 356.581 30.6962 354.959 29.6337C353.336 28.5713 351.44 28.0037 349.5 28ZM349.5 46C347.429 45.9969 345.439 45.1903 343.95 43.75C344.402 42.6495 345.171 41.7083 346.159 41.0459C347.148 40.3835 348.31 40.0298 349.5 40.0298C350.69 40.0298 351.853 40.3835 352.841 41.0459C353.829 41.7083 354.598 42.6495 355.05 43.75C353.561 45.1903 351.572 45.9969 349.5 46ZM347.5 36C347.5 35.6044 347.617 35.2178 347.837 34.8889C348.057 34.56 348.369 34.3036 348.735 34.1522C349.1 34.0009 349.502 33.9613 349.89 34.0384C350.278 34.1156 350.635 34.3061 350.914 34.5858C351.194 34.8655 351.384 35.2219 351.462 35.6098C351.539 35.9978 351.499 36.3999 351.348 36.7654C351.196 37.1308 350.94 37.4432 350.611 37.6629C350.282 37.8827 349.896 38 349.5 38C348.97 38 348.461 37.7893 348.086 37.4142C347.711 37.0391 347.5 36.5304 347.5 36ZM356.41 42C355.517 40.4718 354.141 39.283 352.5 38.62C353.009 38.0427 353.341 37.3307 353.456 36.5694C353.57 35.8082 353.463 35.0301 353.146 34.3285C352.829 33.6269 352.317 33.0316 351.67 32.614C351.023 32.1964 350.27 31.9742 349.5 31.9742C348.73 31.9742 347.977 32.1964 347.33 32.614C346.683 33.0316 346.171 33.6269 345.854 34.3285C345.538 35.0301 345.43 35.8082 345.545 36.5694C345.659 37.3307 345.991 38.0427 346.5 38.62C344.859 39.283 343.484 40.4718 342.59 42C341.878 40.7871 341.502 39.4065 341.5 38C341.5 35.8783 342.343 33.8434 343.843 32.3431C345.343 30.8429 347.378 30 349.5 30C351.622 30 353.657 30.8429 355.157 32.3431C356.657 33.8434 357.5 35.8783 357.5 38C357.498 39.4065 357.122 40.7871 356.41 42Z" fill="#1B1B1B"/>
</g>
<defs>
<filter id="filter0_d_5712_2549" x="0" y="0" width="399" height="104" filterUnits="userSpaceOnUse" color-interpolation-filters="sRGB">
<feFlood flood-opacity="0" result="BackgroundImageFix"/>
<feColorMatrix in="SourceAlpha" type="matrix" values="0 0 0 0 0 0 0 0 0 0 0 0 0 0 0 0 0 0 127 0" result="hardAlpha"/>
<feOffset dy="-4"/>
<feGaussianBlur stdDeviation="6"/>
<feComposite in2="hardAlpha" operator="out"/>
<feColorMatrix type="matrix" values="0 0 0 0 0 0 0 0 0 0 0 0 0 0 0 0 0 0 0.16 0"/>
<feBlend mode="normal" in2="BackgroundImageFix" result="effect1_dropShadow_5712_2549"/>
<feBlend mode="normal" in="SourceGraphic" in2="effect1_dropShadow_5712_2549" result="shape"/>
</filter>
</defs>
</svg>
