<svg width="28" height="28" viewBox="0 0 28 28" fill="none" xmlns="http://www.w3.org/2000/svg">
<path d="M14.0001 17.4998C15.2378 17.4998 16.4247 17.0082 17.2999 16.133C18.1751 15.2578 18.6667 14.0708 18.6667 12.8332V5.83317C18.6667 4.59549 18.1751 3.40851 17.2999 2.53334C16.4247 1.65817 15.2378 1.1665 14.0001 1.1665C12.7624 1.1665 11.5754 1.65817 10.7003 2.53334C9.82508 3.40851 9.33342 4.59549 9.33342 5.83317V12.8332C9.33342 14.0708 9.82508 15.2578 10.7003 16.133C11.5754 17.0082 12.7624 17.4998 14.0001 17.4998ZM11.6667 5.83317C11.6667 5.21433 11.9126 4.62084 12.3502 4.18325C12.7878 3.74567 13.3812 3.49984 14.0001 3.49984C14.6189 3.49984 15.2124 3.74567 15.65 4.18325C16.0876 4.62084 16.3334 5.21433 16.3334 5.83317V12.8332C16.3334 13.452 16.0876 14.0455 15.65 14.4831C15.2124 14.9207 14.6189 15.1665 14.0001 15.1665C13.3812 15.1665 12.7878 14.9207 12.3502 14.4831C11.9126 14.0455 11.6667 13.452 11.6667 12.8332V5.83317ZM23.3334 12.8332C23.3334 12.5238 23.2105 12.227 22.9917 12.0082C22.7729 11.7894 22.4762 11.6665 22.1667 11.6665C21.8573 11.6665 21.5606 11.7894 21.3418 12.0082C21.123 12.227 21.0001 12.5238 21.0001 12.8332C21.0001 14.6897 20.2626 16.4702 18.9498 17.7829C17.6371 19.0957 15.8566 19.8332 14.0001 19.8332C12.1436 19.8332 10.3631 19.0957 9.05033 17.7829C7.73758 16.4702 7.00008 14.6897 7.00008 12.8332C7.00008 12.5238 6.87717 12.227 6.65837 12.0082C6.43958 11.7894 6.14283 11.6665 5.83341 11.6665C5.524 11.6665 5.22725 11.7894 5.00846 12.0082C4.78966 12.227 4.66675 12.5238 4.66675 12.8332C4.66881 15.105 5.49942 17.2981 7.00288 19.0013C8.50633 20.7045 10.5794 21.8009 12.8334 22.0848V24.4998H10.5001C10.1907 24.4998 9.89392 24.6228 9.67512 24.8415C9.45633 25.0603 9.33342 25.3571 9.33342 25.6665C9.33342 25.9759 9.45633 26.2727 9.67512 26.4915C9.89392 26.7103 10.1907 26.8332 10.5001 26.8332H17.5001C17.8095 26.8332 18.1062 26.7103 18.325 26.4915C18.5438 26.2727 18.6667 25.9759 18.6667 25.6665C18.6667 25.3571 18.5438 25.0603 18.325 24.8415C18.1062 24.6228 17.8095 24.4998 17.5001 24.4998H15.1667V22.0848C17.4208 21.8009 19.4938 20.7045 20.9973 19.0013C22.5007 17.2981 23.3314 15.105 23.3334 12.8332Z" fill="#1B1B1B"/>
</svg>
