<svg width="54" height="38" viewBox="0 0 54 38" fill="none" xmlns="http://www.w3.org/2000/svg">
<path d="M18.9832 3.08744L18.9827 3.08747C17.5395 3.172 16.1692 3.35045 14.8215 3.73825L14.8212 3.73833C11.9942 4.55081 9.52745 6.24606 7.74154 8.65391L7.7414 8.65409C5.96489 11.0481 5 13.9829 5 17.0001C5 20.0191 5.96485 22.952 7.7414 25.3461L7.74143 25.3461C9.52748 27.7532 11.9944 29.4494 14.8212 30.2618L14.8215 30.2619C16.1689 30.6496 17.539 30.8272 18.9832 30.9127L18.9832 3.08744ZM18.9832 3.08744C20.477 2.99917 21.9717 2.99962 23.5025 3.00008C23.6132 3.00011 23.7242 3.00015 23.8353 3.00015H23.8355H23.8358H23.8363H23.8371H23.838H23.8391H23.8404H23.8418H23.8435H23.8453H23.8473H23.8495H23.8519H23.8544H23.8572H23.8601H23.8632H23.8665H23.8699H23.8735H23.8773H23.8813H23.8854H23.8897H23.8942H23.8989H23.9037H23.9087H23.9139H23.9192H23.9247H23.9304H23.9362H23.9422H23.9483H23.9547H23.9612H23.9678H23.9746H23.9816H23.9887H23.996H24.0034H24.0111H24.0188H24.0267H24.0348H24.043H24.0514H24.06H24.0686H24.0775H24.0865H24.0956H24.1049H24.1143H24.1239H24.1337H24.1435H24.1536H24.1637H24.174H24.1845H24.1951H24.2059H24.2167H24.2278H24.2389H24.2502H24.2617H24.2733H24.285H24.2968H24.3088H24.3209H24.3332H24.3456H24.3581H24.3708H24.3835H24.3965H24.4095H24.4227H24.436H24.4494H24.463H24.4766H24.4904H24.5044H24.5184H24.5326H24.5469H24.5613H24.5759H24.5905H24.6053H24.6202H24.6352H24.6503H24.6656H24.681H24.6964H24.712H24.7277H24.7436H24.7595H24.7755H24.7917H24.8079H24.8243H24.8408H24.8574H24.8741H24.8908H24.9077H24.9248H24.9419H24.9591H24.9764H24.9938H25.0113H25.0289H25.0466H25.0645H25.0824H25.1004H25.1185H25.1367H25.155H25.1734H25.1918H25.2104H25.2291H25.2478H25.2667H25.2856H25.3046H25.3237H25.3429H25.3622H25.3816H25.4011H25.4206H25.4402H25.4599H25.4797H25.4996H25.5195H25.5396H25.5597H25.5799H25.6001H25.6205H25.6409H25.6614H25.682H25.7026H25.7233H25.7441H25.765H25.7859H25.8069H25.828H25.8491H25.8703H25.8916H25.9129H25.9343H25.9558H25.9773H25.9989H26.0206H26.0423H26.0641H26.086H26.1079H26.1298H26.1519H26.1739H26.1961H26.2183H26.2405H26.2628H26.2852H26.3076H26.3301H26.3526H26.3751H26.3978H26.4204H26.4431H26.4659H26.4887H26.5116H26.5345H26.5574H26.5804H26.6035H26.6265H26.6497H26.6728H26.696H26.7193H26.7425H26.7659H26.7892H26.8126H26.836H26.8595H26.883H26.9065H26.9301H26.9537H26.9773H27.001H27.0247H27.0484H27.0722H27.096H27.1198H27.1436H27.1675H27.1913H27.2152H27.2392H27.2631H27.2871H27.3111H27.3351H27.3592H27.3832H27.4073H27.4314H27.4555H27.4796H27.5038H27.5279H27.5521H27.5763H27.6005H27.6247H27.6489H27.6731H27.6974H27.7216H27.7459H27.7701H27.7944H27.8187H27.843H27.8672H27.8915H27.9158H27.9401H27.9644H27.9887H28.013H28.0373H28.0616H28.0859H28.1102H28.1344H28.1587H28.183H28.2073H28.2315H28.2558H28.28H28.3043H28.3285H28.3527H28.3769H28.4011H28.4253H28.4494H28.4736H28.4977H28.5219H28.546H28.57H28.5941H28.6182H28.6422H28.6662H28.6902H28.7142H28.7381H28.762H28.7859H28.8098H28.8337H28.8575H28.8813H28.9051H28.9288H28.9525H28.9762H28.9998H29.0235H29.0471H29.0706H29.0941H29.1176H29.1411H29.1645H29.1879H29.2112H29.2345H29.2578H29.281H29.3042H29.3274H29.3505H29.3735H29.3965H29.4195H29.4425H29.4653H29.4882H29.511H29.5337H29.5564H29.5791H29.6017H29.6242H29.6467H29.6692H29.6916H29.7139H29.7362H29.7584H29.7806H29.8027H29.8248H29.8468H29.8687H29.8906H29.9124H29.9342H29.9559H29.9775H29.9991H30.0206H30.0421H30.0635H30.0848H30.106H30.1272H30.1483H30.1694H30.1903H30.2113H30.2321H30.2529H30.2735H30.2942H30.3147H30.3352H30.3556H30.3759H30.3961H30.4163H30.4364H30.4564H30.4763H30.4961H30.5159H30.5356H30.5552H30.5747H30.5941H30.6134H30.6327H30.6519H30.6709H30.6899H30.7088H30.7277H30.7464H30.765H30.7836H30.802H30.8204H30.8386H30.8568H30.8749H30.8928H30.9107H30.9285H30.9462H30.9637H30.9812H30.9986H31.0159H31.0331H31.0501H31.0671H31.084H31.1007H31.1174H31.1339H31.1504H31.1667H31.1829H31.199H31.215H31.2309H31.2467H31.2624H31.2779H31.2933H31.3087H31.3239H31.339H31.3539H31.3688H31.3835H31.3982H31.4127H31.427H31.4413H31.4554H31.4694H31.4833H31.4971H31.5107H31.5242H31.5376H31.5509H31.564H31.577H31.5899H31.6026H31.6152H31.6277H31.64H31.6522H31.6643H31.6763H31.6881H31.6997H31.7113H31.7227H31.7339H31.745H31.756H31.7668H31.7775H31.7881H31.7985H31.8088H31.8189H31.8289H31.8387H31.8484H31.8579H31.8673H31.8765H31.8856H31.8946H31.9033H31.912H31.9205H31.9288H31.937H31.945H31.9528H31.9606H31.9681H31.9755H31.9827H31.9898H31.9967H32.0035H32.0101H32.0165H32.0228H32.0289H32.0348H32.0406H32.0462H32.0516H32.0569H32.062H32.0669H32.0717H32.0763H32.0807H32.085H32.0891H32.093H32.0967H32.1003H32.1036H32.1068H32.1099H32.1127H32.1154H32.1179H32.1202H32.1223H32.1243H32.1261H32.1276H32.129H32.1303H32.1313H32.1321H32.1328H32.1333H32.1336L32.1336 2.00015V3.00015C32.2471 3.00015 32.3601 3.00011 32.4728 3.00008C34.0296 2.99962 35.524 2.99917 37.0167 3.08744L37.0173 3.08747M18.9832 3.08744L37.0173 3.08747M37.0173 3.08747C38.4615 3.172 39.8318 3.35046 41.1795 3.73825L41.1798 3.73833M37.0173 3.08747L41.1798 3.73833M41.1798 3.73833C44.0067 4.55081 46.4735 6.24606 48.2594 8.65391L48.2595 8.65409M41.1798 3.73833L48.2595 8.65409M48.2595 8.65409C50.036 11.048 51 13.9827 51 16.9991C51 20.0194 50.036 22.9522 48.2595 25.3461L48.2595 25.3461M48.2595 8.65409L48.2595 25.3461M48.2595 25.3461C46.4735 27.7532 44.0066 29.4494 41.1798 30.2618L41.1795 30.2619M48.2595 25.3461L41.1795 30.2619M41.1795 30.2619C39.8321 30.6496 38.4619 30.8272 37.0167 30.9127M41.1795 30.2619L37.0167 30.9127M23.866 31H23.8668H23.8713L23.8891 31L23.9584 31L24.2215 31L25.1606 30.9998L28.0112 30.9995L32.1656 30.999C32.2891 30.999 32.4123 30.9991 32.5353 30.9991C34.0538 30.9997 35.536 31.0003 37.0167 30.9127M23.866 31L37.0167 30.9127M23.866 31C23.7269 30.9999 23.5884 30.9999 23.4503 30.9999M23.866 31L23.4503 30.9999M23.4503 30.9999C21.9218 30.9997 20.4524 30.9995 18.9834 30.9127L23.4503 30.9999Z" fill="#B4B4B4" stroke="#1B1B1B" stroke-width="2"/>
<g filter="url(#filter0_d_5938_4715)">
<path fill-rule="evenodd" clip-rule="evenodd" d="M19 32C27.2843 32 34 25.2843 34 17C34 8.71573 27.2843 2 19 2C10.7157 2 4 8.71573 4 17C4 25.2843 10.7157 32 19 32Z" fill="white"/>
<path d="M33 17C33 24.732 26.732 31 19 31C11.268 31 5 24.732 5 17C5 9.26801 11.268 3 19 3C26.732 3 33 9.26801 33 17Z" stroke="#1B1B1B" stroke-width="2"/>
</g>
<defs>
<filter id="filter0_d_5938_4715" x="0" y="0" width="38" height="38" filterUnits="userSpaceOnUse" color-interpolation-filters="sRGB">
<feFlood flood-opacity="0" result="BackgroundImageFix"/>
<feColorMatrix in="SourceAlpha" type="matrix" values="0 0 0 0 0 0 0 0 0 0 0 0 0 0 0 0 0 0 127 0" result="hardAlpha"/>
<feOffset dy="2"/>
<feGaussianBlur stdDeviation="2"/>
<feComposite in2="hardAlpha" operator="out"/>
<feColorMatrix type="matrix" values="0 0 0 0 0 0 0 0 0 0 0 0 0 0 0 0 0 0 0.08 0"/>
<feBlend mode="normal" in2="BackgroundImageFix" result="effect1_dropShadow_5938_4715"/>
<feBlend mode="normal" in="SourceGraphic" in2="effect1_dropShadow_5938_4715" result="shape"/>
</filter>
</defs>
</svg>
